M48
; DRILL file {KiCad 7.0.7} date 2024 January 02, Tuesday 00:31:05
; FORMAT={-:-/ absolute / inch / decimal}
; #@! TF.CreationDate,2024-01-02T00:31:05-08:00
; #@! TF.GenerationSoftware,Kicad,Pcbnew,7.0.7
; #@! TF.FileFunction,Plated,1,2,PTH
FMAT,2
INCH
; #@! TA.AperFunction,Plated,PTH,ComponentDrill
T1C0.0300
; #@! TA.AperFunction,Plated,PTH,ComponentDrill
T2C0.0394
%
G90
G05
T1
X4.3Y-2.3
X4.3Y-2.4
X4.3Y-2.5
X4.3Y-3.9
X4.3Y-4.0
X4.3Y-4.1
X4.3Y-5.5
X4.3Y-5.6
X4.3Y-5.7
X4.4Y-2.3
X4.4Y-2.4
X4.4Y-2.5
X4.4Y-3.9
X4.4Y-4.0
X4.4Y-4.1
X4.4Y-5.5
X4.4Y-5.6
X4.4Y-5.7
X4.5Y-2.3
X4.5Y-2.4
X4.5Y-2.5
X4.5Y-3.9
X4.5Y-4.0
X4.5Y-4.1
X4.5Y-5.5
X4.5Y-5.6
X4.5Y-5.7
X5.9Y-2.3
X5.9Y-2.4
X5.9Y-2.5
X5.9Y-3.9
X5.9Y-4.0
X5.9Y-4.1
X5.9Y-5.5
X5.9Y-5.6
X5.9Y-5.7
X6.0Y-2.3
X6.0Y-2.4
X6.0Y-2.5
X6.0Y-3.9
X6.0Y-4.0
X6.0Y-4.1
X6.0Y-5.5
X6.0Y-5.6
X6.0Y-5.7
X6.1Y-2.3
X6.1Y-2.4
X6.1Y-2.5
X6.1Y-3.9
X6.1Y-4.0
X6.1Y-4.1
X6.1Y-5.5
X6.1Y-5.6
X6.1Y-5.7
X7.5Y-2.3
X7.5Y-2.4
X7.5Y-2.5
X7.5Y-3.9
X7.5Y-4.0
X7.5Y-4.1
X7.5Y-5.5
X7.5Y-5.6
X7.5Y-5.7
X7.6Y-2.3
X7.6Y-2.4
X7.6Y-2.5
X7.6Y-3.9
X7.6Y-4.0
X7.6Y-4.1
X7.6Y-5.5
X7.6Y-5.6
X7.6Y-5.7
X7.7Y-2.3
X7.7Y-2.4
X7.7Y-2.5
X7.7Y-3.9
X7.7Y-4.0
X7.7Y-4.1
X7.7Y-5.5
X7.7Y-5.6
X7.7Y-5.7
T2
X4.05Y-2.3
X4.05Y-2.55
X4.05Y-2.8
X4.05Y-3.75
X4.05Y-4.0
X4.05Y-4.25
X4.05Y-5.2
X4.05Y-5.45
X4.05Y-5.7
X4.3Y-2.05
X4.3Y-5.95
X4.55Y-2.05
X4.55Y-5.95
X4.8Y-2.05
X4.8Y-5.95
X5.75Y-2.05
X5.75Y-5.95
X6.0Y-2.05
X6.0Y-5.95
X6.25Y-2.05
X6.25Y-5.95
X7.2Y-2.05
X7.2Y-5.95
X7.45Y-2.05
X7.45Y-5.95
X7.7Y-2.05
X7.7Y-5.95
X7.95Y-2.3
X7.95Y-2.55
X7.95Y-2.8
X7.95Y-3.75
X7.95Y-4.0
X7.95Y-4.25
X7.95Y-5.2
X7.95Y-5.45
X7.95Y-5.7
T0
M30
