%TF.GenerationSoftware,KiCad,Pcbnew,7.0.7*%
%TF.CreationDate,2024-01-02T00:31:05-08:00*%
%TF.ProjectId,baseplate_v1,62617365-706c-4617-9465-5f76312e6b69,rev?*%
%TF.SameCoordinates,Original*%
%TF.FileFunction,Copper,L2,Bot*%
%TF.FilePolarity,Positive*%
%FSLAX46Y46*%
G04 Gerber Fmt 4.6, Leading zero omitted, Abs format (unit mm)*
G04 Created by KiCad (PCBNEW 7.0.7) date 2024-01-02 00:31:05*
%MOMM*%
%LPD*%
G01*
G04 APERTURE LIST*
%TA.AperFunction,ComponentPad*%
%ADD10R,3.000000X3.000000*%
%TD*%
%TA.AperFunction,ComponentPad*%
%ADD11C,1.524000*%
%TD*%
%TA.AperFunction,Conductor*%
%ADD12C,0.600000*%
%TD*%
G04 APERTURE END LIST*
D10*
%TO.P,TP9,1,1*%
%TO.N,GND*%
X201930000Y-144780000D03*
%TD*%
D11*
%TO.P,U9,1,SIG_N*%
%TO.N,Net-(U6-SIG_S)*%
X193040000Y-139700000D03*
%TO.P,U9,2,SIG_E*%
%TO.N,Net-(U9-SIG_E)*%
X195580000Y-142240000D03*
%TO.P,U9,3,SIG_S*%
%TO.N,Net-(U9-SIG_S)*%
X193040000Y-144780000D03*
%TO.P,U9,4,SIG_W*%
%TO.N,Net-(U8-SIG_E)*%
X190500000Y-142240000D03*
%TO.P,U9,5,VCC*%
%TO.N,+3V3*%
X193040000Y-142240000D03*
%TO.P,U9,6,GND*%
%TO.N,GND*%
X190500000Y-139700000D03*
X190500000Y-144780000D03*
X195580000Y-139700000D03*
X195580000Y-144780000D03*
%TD*%
D10*
%TO.P,TP35,1,1*%
%TO.N,Net-(U3-SIG_N)*%
X189230000Y-52070000D03*
%TD*%
%TO.P,TP11,1,1*%
%TO.N,Net-(U9-SIG_S)*%
X189230000Y-151130000D03*
%TD*%
D11*
%TO.P,U5,1,SIG_N*%
%TO.N,Net-(U2-SIG_S)*%
X152400000Y-99060000D03*
%TO.P,U5,2,SIG_E*%
%TO.N,Net-(U5-SIG_E)*%
X154940000Y-101600000D03*
%TO.P,U5,3,SIG_S*%
%TO.N,Net-(U5-SIG_S)*%
X152400000Y-104140000D03*
%TO.P,U5,4,SIG_W*%
%TO.N,Net-(U4-SIG_E)*%
X149860000Y-101600000D03*
%TO.P,U5,5,VCC*%
%TO.N,+3V3*%
X152400000Y-101600000D03*
%TO.P,U5,6,GND*%
%TO.N,GND*%
X149860000Y-99060000D03*
X149860000Y-104140000D03*
X154940000Y-99060000D03*
X154940000Y-104140000D03*
%TD*%
%TO.P,U1,1,SIG_N*%
%TO.N,Net-(U1-SIG_N)*%
X111760000Y-58420000D03*
%TO.P,U1,2,SIG_E*%
%TO.N,Net-(U1-SIG_E)*%
X114300000Y-60960000D03*
%TO.P,U1,3,SIG_S*%
%TO.N,Net-(U1-SIG_S)*%
X111760000Y-63500000D03*
%TO.P,U1,4,SIG_W*%
%TO.N,Net-(U1-SIG_W)*%
X109220000Y-60960000D03*
%TO.P,U1,5,VCC*%
%TO.N,+3V3*%
X111760000Y-60960000D03*
%TO.P,U1,6,GND*%
%TO.N,GND*%
X109220000Y-58420000D03*
X109220000Y-63500000D03*
X114300000Y-58420000D03*
X114300000Y-63500000D03*
%TD*%
D10*
%TO.P,TP5,1,1*%
%TO.N,Net-(U6-SIG_E)*%
X201930000Y-101600000D03*
%TD*%
%TO.P,TP25,1,1*%
%TO.N,GND*%
X102870000Y-71120000D03*
%TD*%
%TO.P,TP4,1,1*%
%TO.N,+3V3*%
X201930000Y-95250000D03*
%TD*%
D11*
%TO.P,U4,1,SIG_N*%
%TO.N,Net-(U1-SIG_S)*%
X111760000Y-99060000D03*
%TO.P,U4,2,SIG_E*%
%TO.N,Net-(U4-SIG_E)*%
X114300000Y-101600000D03*
%TO.P,U4,3,SIG_S*%
%TO.N,Net-(U4-SIG_S)*%
X111760000Y-104140000D03*
%TO.P,U4,4,SIG_W*%
%TO.N,Net-(U4-SIG_W)*%
X109220000Y-101600000D03*
%TO.P,U4,5,VCC*%
%TO.N,+3V3*%
X111760000Y-101600000D03*
%TO.P,U4,6,GND*%
%TO.N,GND*%
X109220000Y-99060000D03*
X109220000Y-104140000D03*
X114300000Y-99060000D03*
X114300000Y-104140000D03*
%TD*%
D10*
%TO.P,TP20,1,1*%
%TO.N,Net-(U7-SIG_W)*%
X102870000Y-138430000D03*
%TD*%
D11*
%TO.P,U8,1,SIG_N*%
%TO.N,Net-(U5-SIG_S)*%
X152400000Y-139700000D03*
%TO.P,U8,2,SIG_E*%
%TO.N,Net-(U8-SIG_E)*%
X154940000Y-142240000D03*
%TO.P,U8,3,SIG_S*%
%TO.N,Net-(U8-SIG_S)*%
X152400000Y-144780000D03*
%TO.P,U8,4,SIG_W*%
%TO.N,Net-(U7-SIG_E)*%
X149860000Y-142240000D03*
%TO.P,U8,5,VCC*%
%TO.N,+3V3*%
X152400000Y-142240000D03*
%TO.P,U8,6,GND*%
%TO.N,GND*%
X149860000Y-139700000D03*
X149860000Y-144780000D03*
X154940000Y-139700000D03*
X154940000Y-144780000D03*
%TD*%
D10*
%TO.P,TP26,1,1*%
%TO.N,Net-(U1-SIG_W)*%
X102870000Y-64770000D03*
%TD*%
%TO.P,TP31,1,1*%
%TO.N,GND*%
X146050000Y-52070000D03*
%TD*%
D11*
%TO.P,U3,1,SIG_N*%
%TO.N,Net-(U3-SIG_N)*%
X193040000Y-58420000D03*
%TO.P,U3,2,SIG_E*%
%TO.N,Net-(U3-SIG_E)*%
X195580000Y-60960000D03*
%TO.P,U3,3,SIG_S*%
%TO.N,Net-(U3-SIG_S)*%
X193040000Y-63500000D03*
%TO.P,U3,4,SIG_W*%
%TO.N,Net-(U2-SIG_E)*%
X190500000Y-60960000D03*
%TO.P,U3,5,VCC*%
%TO.N,+3V3*%
X193040000Y-60960000D03*
%TO.P,U3,6,GND*%
%TO.N,GND*%
X190500000Y-58420000D03*
X190500000Y-63500000D03*
X195580000Y-58420000D03*
X195580000Y-63500000D03*
%TD*%
%TO.P,U2,1,SIG_N*%
%TO.N,Net-(U2-SIG_N)*%
X152400000Y-58420000D03*
%TO.P,U2,2,SIG_E*%
%TO.N,Net-(U2-SIG_E)*%
X154940000Y-60960000D03*
%TO.P,U2,3,SIG_S*%
%TO.N,Net-(U2-SIG_S)*%
X152400000Y-63500000D03*
%TO.P,U2,4,SIG_W*%
%TO.N,Net-(U1-SIG_E)*%
X149860000Y-60960000D03*
%TO.P,U2,5,VCC*%
%TO.N,+3V3*%
X152400000Y-60960000D03*
%TO.P,U2,6,GND*%
%TO.N,GND*%
X149860000Y-58420000D03*
X149860000Y-63500000D03*
X154940000Y-58420000D03*
X154940000Y-63500000D03*
%TD*%
D10*
%TO.P,TP16,1,1*%
%TO.N,+3V3*%
X121920000Y-151130000D03*
%TD*%
%TO.P,TP27,1,1*%
%TO.N,+3V3*%
X102870000Y-58420000D03*
%TD*%
%TO.P,TP17,1,1*%
%TO.N,Net-(U7-SIG_S)*%
X115570000Y-151130000D03*
%TD*%
%TO.P,TP8,1,1*%
%TO.N,Net-(U9-SIG_E)*%
X201930000Y-138430000D03*
%TD*%
%TO.P,TP7,1,1*%
%TO.N,+3V3*%
X201930000Y-132080000D03*
%TD*%
%TO.P,TP19,1,1*%
%TO.N,GND*%
X102870000Y-144780000D03*
%TD*%
%TO.P,TP18,1,1*%
%TO.N,GND*%
X109220000Y-151130000D03*
%TD*%
%TO.P,TP34,1,1*%
%TO.N,GND*%
X182880000Y-52070000D03*
%TD*%
%TO.P,TP6,1,1*%
%TO.N,GND*%
X201930000Y-107950000D03*
%TD*%
%TO.P,TP12,1,1*%
%TO.N,GND*%
X182880000Y-151130000D03*
%TD*%
%TO.P,TP2,1,1*%
%TO.N,Net-(U3-SIG_E)*%
X201930000Y-64770000D03*
%TD*%
%TO.P,TP15,1,1*%
%TO.N,GND*%
X146050000Y-151130000D03*
%TD*%
%TO.P,TP32,1,1*%
%TO.N,Net-(U2-SIG_N)*%
X152400000Y-52070000D03*
%TD*%
%TO.P,TP30,1,1*%
%TO.N,+3V3*%
X121920000Y-52070000D03*
%TD*%
%TO.P,TP10,1,1*%
%TO.N,+3V3*%
X195580000Y-151130000D03*
%TD*%
D11*
%TO.P,U7,1,SIG_N*%
%TO.N,Net-(U4-SIG_S)*%
X111760000Y-139700000D03*
%TO.P,U7,2,SIG_E*%
%TO.N,Net-(U7-SIG_E)*%
X114300000Y-142240000D03*
%TO.P,U7,3,SIG_S*%
%TO.N,Net-(U7-SIG_S)*%
X111760000Y-144780000D03*
%TO.P,U7,4,SIG_W*%
%TO.N,Net-(U7-SIG_W)*%
X109220000Y-142240000D03*
%TO.P,U7,5,VCC*%
%TO.N,+3V3*%
X111760000Y-142240000D03*
%TO.P,U7,6,GND*%
%TO.N,GND*%
X109220000Y-139700000D03*
X109220000Y-144780000D03*
X114300000Y-139700000D03*
X114300000Y-144780000D03*
%TD*%
D10*
%TO.P,TP29,1,1*%
%TO.N,Net-(U1-SIG_N)*%
X115570000Y-52070000D03*
%TD*%
D11*
%TO.P,U6,1,SIG_N*%
%TO.N,Net-(U3-SIG_S)*%
X193040000Y-99060000D03*
%TO.P,U6,2,SIG_E*%
%TO.N,Net-(U6-SIG_E)*%
X195580000Y-101600000D03*
%TO.P,U6,3,SIG_S*%
%TO.N,Net-(U6-SIG_S)*%
X193040000Y-104140000D03*
%TO.P,U6,4,SIG_W*%
%TO.N,Net-(U5-SIG_E)*%
X190500000Y-101600000D03*
%TO.P,U6,5,VCC*%
%TO.N,+3V3*%
X193040000Y-101600000D03*
%TO.P,U6,6,GND*%
%TO.N,GND*%
X190500000Y-99060000D03*
X190500000Y-104140000D03*
X195580000Y-99060000D03*
X195580000Y-104140000D03*
%TD*%
D10*
%TO.P,TP36,1,1*%
%TO.N,+3V3*%
X195580000Y-52070000D03*
%TD*%
%TO.P,TP28,1,1*%
%TO.N,GND*%
X109220000Y-52070000D03*
%TD*%
%TO.P,TP14,1,1*%
%TO.N,Net-(U8-SIG_S)*%
X152400000Y-151130000D03*
%TD*%
%TO.P,TP1,1,1*%
%TO.N,+3V3*%
X201930000Y-58420000D03*
%TD*%
%TO.P,TP22,1,1*%
%TO.N,GND*%
X102870000Y-107950000D03*
%TD*%
%TO.P,TP33,1,1*%
%TO.N,+3V3*%
X158750000Y-52070000D03*
%TD*%
%TO.P,TP24,1,1*%
%TO.N,+3V3*%
X102870000Y-95250000D03*
%TD*%
%TO.P,TP13,1,1*%
%TO.N,+3V3*%
X158750000Y-151130000D03*
%TD*%
%TO.P,TP23,1,1*%
%TO.N,Net-(U4-SIG_W)*%
X102870000Y-101600000D03*
%TD*%
%TO.P,TP21,1,1*%
%TO.N,+3V3*%
X102870000Y-132080000D03*
%TD*%
%TO.P,TP3,1,1*%
%TO.N,GND*%
X201930000Y-71120000D03*
%TD*%
D12*
%TO.N,Net-(U3-SIG_E)*%
X195580000Y-60960000D02*
X198120000Y-60960000D01*
X198120000Y-60960000D02*
X201930000Y-64770000D01*
%TO.N,Net-(U1-SIG_E)*%
X114300000Y-60960000D02*
X149860000Y-60960000D01*
%TO.N,Net-(U1-SIG_S)*%
X111760000Y-99060000D02*
X111760000Y-63500000D01*
%TO.N,Net-(U6-SIG_E)*%
X195580000Y-101600000D02*
X201930000Y-101600000D01*
%TO.N,+3V3*%
X113022000Y-143502000D02*
X151138000Y-143502000D01*
X193040000Y-60960000D02*
X191778000Y-62222000D01*
X191778000Y-59698000D02*
X193040000Y-60960000D01*
X196842000Y-140978000D02*
X198340000Y-139480000D01*
X191762000Y-102878000D02*
X193040000Y-101600000D01*
X110482000Y-137592000D02*
X104970000Y-132080000D01*
X191762000Y-140962000D02*
X191762000Y-102878000D01*
X194318000Y-149868000D02*
X195580000Y-151130000D01*
X113022000Y-140978000D02*
X113022000Y-102862000D01*
X113022000Y-62222000D02*
X113022000Y-100338000D01*
X111760000Y-142240000D02*
X113022000Y-140978000D01*
X151138000Y-102862000D02*
X113022000Y-102862000D01*
X195580000Y-55880000D02*
X195580000Y-52070000D01*
X152400000Y-60960000D02*
X153670000Y-62230000D01*
X194318000Y-59682000D02*
X194318000Y-57142000D01*
X158750000Y-52070000D02*
X158750000Y-57158000D01*
X196858000Y-59682000D02*
X198120000Y-58420000D01*
X152400000Y-60960000D02*
X153662000Y-59698000D01*
X111760000Y-101600000D02*
X110498000Y-100338000D01*
X110482000Y-100322000D02*
X107942000Y-100322000D01*
X115578000Y-143518000D02*
X121920000Y-149860000D01*
X111760000Y-142240000D02*
X113038000Y-143518000D01*
X104132000Y-59682000D02*
X102870000Y-58420000D01*
X199830000Y-132080000D02*
X201930000Y-132080000D01*
X193040000Y-101600000D02*
X194302000Y-100338000D01*
X110498000Y-100338000D02*
X110498000Y-96520000D01*
X158750000Y-146042000D02*
X156210000Y-143502000D01*
X194302000Y-62222000D02*
X193040000Y-60960000D01*
X111760000Y-60960000D02*
X113022000Y-59698000D01*
X193040000Y-101600000D02*
X194318000Y-100322000D01*
X104970000Y-132080000D02*
X102870000Y-132080000D01*
X153662000Y-100338000D02*
X191778000Y-100338000D01*
X119380000Y-57150000D02*
X119380000Y-54610000D01*
X110498000Y-140978000D02*
X111760000Y-142240000D01*
X193040000Y-60960000D02*
X194318000Y-59682000D01*
X152400000Y-101600000D02*
X153670000Y-102870000D01*
X152400000Y-142240000D02*
X151122000Y-140962000D01*
X151138000Y-102862000D02*
X152400000Y-101600000D01*
X113022000Y-59698000D02*
X115570000Y-59698000D01*
X153662000Y-143502000D02*
X152400000Y-142240000D01*
X115570000Y-59698000D02*
X116832000Y-59698000D01*
X193040000Y-101600000D02*
X194302000Y-102862000D01*
X106680000Y-135890000D02*
X106680000Y-139700000D01*
X110482000Y-140962000D02*
X110482000Y-137592000D01*
X107942000Y-140962000D02*
X110482000Y-140962000D01*
X116325262Y-54610000D02*
X119380000Y-54610000D01*
X151138000Y-100338000D02*
X151138000Y-62222000D01*
X102870000Y-132080000D02*
X106680000Y-135890000D01*
X196858000Y-100322000D02*
X201930000Y-95250000D01*
X151138000Y-140978000D02*
X151138000Y-102862000D01*
X156210000Y-143502000D02*
X153662000Y-143502000D01*
X151138000Y-59698000D02*
X152400000Y-60960000D01*
X153662000Y-59698000D02*
X153662000Y-57158000D01*
X111760000Y-101600000D02*
X110482000Y-100322000D01*
X116832000Y-59698000D02*
X119380000Y-57150000D01*
X121920000Y-149860000D02*
X121920000Y-151130000D01*
X111760000Y-60960000D02*
X113038000Y-59682000D01*
X153678000Y-143518000D02*
X153678000Y-146058000D01*
X111760000Y-142240000D02*
X113022000Y-143502000D01*
X153670000Y-62230000D02*
X153670000Y-100330000D01*
X111760000Y-142240000D02*
X110482000Y-140962000D01*
X191778000Y-143502000D02*
X156210000Y-143502000D01*
X153678000Y-146058000D02*
X158750000Y-151130000D01*
X194318000Y-57142000D02*
X195580000Y-55880000D01*
X152400000Y-60960000D02*
X153662000Y-62222000D01*
X113038000Y-143518000D02*
X115578000Y-143518000D01*
X153662000Y-140978000D02*
X191778000Y-140978000D01*
X153670000Y-100330000D02*
X152400000Y-101600000D01*
X115570000Y-59698000D02*
X151138000Y-59698000D01*
X102870000Y-95250000D02*
X109228000Y-95250000D01*
X194318000Y-59682000D02*
X196858000Y-59682000D01*
X153662000Y-59698000D02*
X156210000Y-59698000D01*
X113030000Y-100330000D02*
X151130000Y-100330000D01*
X110498000Y-96520000D02*
X110498000Y-62222000D01*
X113038000Y-57897262D02*
X116325262Y-54610000D01*
X111760000Y-60960000D02*
X110482000Y-59682000D01*
X151138000Y-143502000D02*
X152400000Y-142240000D01*
X111760000Y-101600000D02*
X113030000Y-100330000D01*
X151138000Y-62222000D02*
X152400000Y-60960000D01*
X194302000Y-140978000D02*
X193040000Y-142240000D01*
X191778000Y-140978000D02*
X193040000Y-142240000D01*
X198340000Y-139480000D02*
X198340000Y-133570000D01*
X151138000Y-62222000D02*
X113022000Y-62222000D01*
X194302000Y-100338000D02*
X194302000Y-62222000D01*
X151130000Y-100330000D02*
X152400000Y-101600000D01*
X198340000Y-133570000D02*
X199830000Y-132080000D01*
X110498000Y-102862000D02*
X110498000Y-140978000D01*
X153662000Y-62222000D02*
X191778000Y-62222000D01*
X110498000Y-62222000D02*
X111760000Y-60960000D01*
X194302000Y-140978000D02*
X196842000Y-140978000D01*
X113022000Y-100338000D02*
X111760000Y-101600000D01*
X110482000Y-59682000D02*
X104132000Y-59682000D01*
X156210000Y-59698000D02*
X191778000Y-59698000D01*
X107942000Y-100322000D02*
X102870000Y-95250000D01*
X113038000Y-140962000D02*
X111760000Y-142240000D01*
X193040000Y-101600000D02*
X191770000Y-102870000D01*
X198120000Y-58420000D02*
X195580000Y-55880000D01*
X158750000Y-151130000D02*
X158750000Y-146042000D01*
X113038000Y-59682000D02*
X113038000Y-57897262D01*
X194318000Y-97798000D02*
X196866000Y-95250000D01*
X191778000Y-100338000D02*
X193040000Y-101600000D01*
X193040000Y-142240000D02*
X191778000Y-143502000D01*
X193040000Y-142240000D02*
X191762000Y-140962000D01*
X111760000Y-60960000D02*
X113022000Y-62222000D01*
X151122000Y-140962000D02*
X113038000Y-140962000D01*
X152400000Y-142240000D02*
X153662000Y-140978000D01*
X109228000Y-95250000D02*
X110498000Y-96520000D01*
X194318000Y-100322000D02*
X194318000Y-97798000D01*
X194318000Y-140962000D02*
X194318000Y-137592000D01*
X152400000Y-101600000D02*
X151138000Y-100338000D01*
X198120000Y-58420000D02*
X201930000Y-58420000D01*
X158750000Y-57158000D02*
X156210000Y-59698000D01*
X193040000Y-142240000D02*
X194318000Y-143518000D01*
X153662000Y-102862000D02*
X152400000Y-101600000D01*
X113022000Y-102862000D02*
X111760000Y-101600000D01*
X194318000Y-143518000D02*
X194318000Y-149868000D01*
X191770000Y-102870000D02*
X153670000Y-102870000D01*
X194318000Y-100322000D02*
X196858000Y-100322000D01*
X193040000Y-142240000D02*
X194318000Y-140962000D01*
X111760000Y-101600000D02*
X110498000Y-102862000D01*
X152400000Y-142240000D02*
X151138000Y-140978000D01*
X119380000Y-54610000D02*
X121920000Y-52070000D01*
X191778000Y-62222000D02*
X191778000Y-100338000D01*
X153662000Y-57158000D02*
X158750000Y-52070000D01*
X196866000Y-95250000D02*
X201930000Y-95250000D01*
X152400000Y-101600000D02*
X153662000Y-100338000D01*
X152400000Y-142240000D02*
X153678000Y-143518000D01*
X106680000Y-139700000D02*
X107942000Y-140962000D01*
X194302000Y-102862000D02*
X194302000Y-140978000D01*
X194318000Y-137592000D02*
X198340000Y-133570000D01*
X153662000Y-140978000D02*
X153662000Y-102862000D01*
%TO.N,Net-(U9-SIG_E)*%
X195580000Y-142240000D02*
X198120000Y-142240000D01*
X198120000Y-142240000D02*
X201930000Y-138430000D01*
%TO.N,Net-(U2-SIG_E)*%
X154940000Y-60960000D02*
X190500000Y-60960000D01*
%TO.N,Net-(U2-SIG_S)*%
X152400000Y-63500000D02*
X152400000Y-99060000D01*
%TO.N,Net-(U9-SIG_S)*%
X193040000Y-144780000D02*
X193040000Y-147320000D01*
X193040000Y-147320000D02*
X189230000Y-151130000D01*
%TO.N,Net-(U8-SIG_S)*%
X152400000Y-144780000D02*
X152400000Y-151130000D01*
%TO.N,Net-(U3-SIG_S)*%
X193040000Y-99060000D02*
X193040000Y-63500000D01*
%TO.N,Net-(U4-SIG_E)*%
X149860000Y-101600000D02*
X114300000Y-101600000D01*
%TO.N,Net-(U4-SIG_S)*%
X111760000Y-104140000D02*
X111760000Y-139700000D01*
%TO.N,Net-(U7-SIG_S)*%
X111760000Y-147320000D02*
X115570000Y-151130000D01*
X111760000Y-144780000D02*
X111760000Y-147320000D01*
%TO.N,Net-(U5-SIG_E)*%
X154940000Y-101600000D02*
X190500000Y-101600000D01*
%TO.N,Net-(U5-SIG_S)*%
X152400000Y-139700000D02*
X152400000Y-104140000D01*
%TO.N,Net-(U7-SIG_W)*%
X106680000Y-142240000D02*
X102870000Y-138430000D01*
X109220000Y-142240000D02*
X106680000Y-142240000D01*
%TO.N,Net-(U6-SIG_S)*%
X193040000Y-104140000D02*
X193040000Y-139700000D01*
%TO.N,Net-(U7-SIG_E)*%
X114300000Y-142240000D02*
X149860000Y-142240000D01*
%TO.N,Net-(U4-SIG_W)*%
X109220000Y-101600000D02*
X102870000Y-101600000D01*
%TO.N,Net-(U1-SIG_W)*%
X109220000Y-60960000D02*
X105410000Y-64770000D01*
X105410000Y-64770000D02*
X102870000Y-64770000D01*
%TO.N,Net-(U8-SIG_E)*%
X154940000Y-142240000D02*
X190500000Y-142240000D01*
%TO.N,Net-(U1-SIG_N)*%
X111760000Y-58420000D02*
X111760000Y-55880000D01*
X111760000Y-55880000D02*
X115570000Y-52070000D01*
%TO.N,Net-(U2-SIG_N)*%
X152400000Y-58420000D02*
X152400000Y-52070000D01*
%TO.N,Net-(U3-SIG_N)*%
X193040000Y-55880000D02*
X189230000Y-52070000D01*
X193040000Y-58420000D02*
X193040000Y-55880000D01*
%TD*%
M02*
