  0
SECTION
  2
HEADER
  9
$ANGBASE
  50
0.0
  9
$ANGDIR
  70
1
  9
$MEASUREMENT
  70
0
  0
ENDSEC
  0
SECTION
  2
TABLES
  0
TABLE
  2
LTYPE
  70
4
  0
LTYPE
  5
40F
  2
CONTINUOUS
  70
0
  3
Solid line
  72
65
  73
0
  40
0.0
  0
LTYPE
  5
410
  2
DASHDOT
 70
0
  3
Dash Dot ____ _ ____ _
 72
65
 73
4
 40
2.0
 49
1.25
 49
-0.25
 49
0.25
 49
-0.25
  0
LTYPE
  5
411
  2
DASHED
 70
0
  3
Dashed __ __ __ __ __
 72
65
 73
2
 40
0.75
 49
0.5
 49
-0.25
  0
LTYPE
  5
43B
  2
DOTTED
 70
0
  3
Dotted .  .  .  .
 72
65
 73
2
 40
0.2
 49
0.0
 49
-0.2
  0
ENDTAB
  0
TABLE
  2
STYLE
  70
4
  0
STYLE
  2
KICAD
  70
0
  40
0
  41
1
  42
1
  50
0
  71
0
  3
isocp.shx
  0
STYLE
  2
KICADB
  70
0
  40
0
  41
1
  42
1
  50
0
  71
0
  3
isocp.shx
  0
STYLE
  2
KICADI
  70
0
  40
0
  41
1
  42
1
  50
15
  71
0
  3
isocp.shx
  0
STYLE
  2
KICADBI
  70
0
  40
0
  41
1
  42
1
  50
15
  71
0
  3
isocp.shx
  0
ENDTAB
  0
TABLE
  2
LAYER
  70
1
  0
LAYER
  2
BLACK
  70
0
  62
7
  6
CONTINUOUS
  0
ENDTAB
  0
ENDSEC
  0
SECTION
  2
ENTITIES
0
LINE
8
BLACK
6
CONTINUOUS
10
5.45985
20
-4.68778
11
5.46947
21
-4.69009
0
LINE
8
BLACK
6
CONTINUOUS
10
5.46947
20
-4.69009
11
5.4786
21
-4.69387
0
LINE
8
BLACK
6
CONTINUOUS
10
5.4786
20
-4.69387
11
5.48703
21
-4.69904
0
LINE
8
BLACK
6
CONTINUOUS
10
5.48703
20
-4.69904
11
5.49454
21
-4.70546
0
LINE
8
BLACK
6
CONTINUOUS
10
5.49454
20
-4.70546
11
5.50096
21
-4.71297
0
LINE
8
BLACK
6
CONTINUOUS
10
5.50096
20
-4.71297
11
5.50613
21
-4.7214
0
LINE
8
BLACK
6
CONTINUOUS
10
5.50613
20
-4.7214
11
5.50991
21
-4.73053
0
LINE
8
BLACK
6
CONTINUOUS
10
5.50991
20
-4.73053
11
5.51222
21
-4.74015
0
LINE
8
BLACK
6
CONTINUOUS
10
5.51222
20
-4.74015
11
5.51299
21
-4.75
0
LINE
8
BLACK
6
CONTINUOUS
10
5.51299
20
-4.75
11
5.51222
21
-4.75985
0
LINE
8
BLACK
6
CONTINUOUS
10
5.51222
20
-4.75985
11
5.50991
21
-4.76947
0
LINE
8
BLACK
6
CONTINUOUS
10
5.50991
20
-4.76947
11
5.50613
21
-4.7786
0
LINE
8
BLACK
6
CONTINUOUS
10
5.50613
20
-4.7786
11
5.50096
21
-4.78703
0
LINE
8
BLACK
6
CONTINUOUS
10
5.50096
20
-4.78703
11
5.49454
21
-4.79454
0
LINE
8
BLACK
6
CONTINUOUS
10
5.49454
20
-4.79454
11
5.48703
21
-4.80096
0
LINE
8
BLACK
6
CONTINUOUS
10
5.48703
20
-4.80096
11
5.4786
21
-4.80613
0
LINE
8
BLACK
6
CONTINUOUS
10
5.4786
20
-4.80613
11
5.46947
21
-4.80991
0
LINE
8
BLACK
6
CONTINUOUS
10
5.46947
20
-4.80991
11
5.45985
21
-4.81222
0
LINE
8
BLACK
6
CONTINUOUS
10
5.45985
20
-4.81222
11
5.45
21
-4.81299
0
LINE
8
BLACK
6
CONTINUOUS
10
5.45
20
-4.81299
11
5.44015
21
-4.81222
0
LINE
8
BLACK
6
CONTINUOUS
10
5.44015
20
-4.81222
11
5.43053
21
-4.80991
0
LINE
8
BLACK
6
CONTINUOUS
10
5.43053
20
-4.80991
11
5.4214
21
-4.80613
0
LINE
8
BLACK
6
CONTINUOUS
10
5.4214
20
-4.80613
11
5.41297
21
-4.80096
0
LINE
8
BLACK
6
CONTINUOUS
10
5.41297
20
-4.80096
11
5.40546
21
-4.79454
0
LINE
8
BLACK
6
CONTINUOUS
10
5.40546
20
-4.79454
11
5.39904
21
-4.78703
0
LINE
8
BLACK
6
CONTINUOUS
10
5.39904
20
-4.78703
11
5.39387
21
-4.7786
0
LINE
8
BLACK
6
CONTINUOUS
10
5.39387
20
-4.7786
11
5.39009
21
-4.76947
0
LINE
8
BLACK
6
CONTINUOUS
10
5.39009
20
-4.76947
11
5.38778
21
-4.75985
0
LINE
8
BLACK
6
CONTINUOUS
10
5.38778
20
-4.75985
11
5.38701
21
-4.75
0
LINE
8
BLACK
6
CONTINUOUS
10
5.38701
20
-4.75
11
5.38778
21
-4.74015
0
LINE
8
BLACK
6
CONTINUOUS
10
5.38778
20
-4.74015
11
5.39009
21
-4.73053
0
LINE
8
BLACK
6
CONTINUOUS
10
5.39009
20
-4.73053
11
5.39387
21
-4.7214
0
LINE
8
BLACK
6
CONTINUOUS
10
5.39387
20
-4.7214
11
5.39904
21
-4.71297
0
LINE
8
BLACK
6
CONTINUOUS
10
5.39904
20
-4.71297
11
5.40546
21
-4.70546
0
LINE
8
BLACK
6
CONTINUOUS
10
5.40546
20
-4.70546
11
5.41297
21
-4.69904
0
LINE
8
BLACK
6
CONTINUOUS
10
5.41297
20
-4.69904
11
5.4214
21
-4.69387
0
LINE
8
BLACK
6
CONTINUOUS
10
5.4214
20
-4.69387
11
5.43053
21
-4.69009
0
LINE
8
BLACK
6
CONTINUOUS
10
5.43053
20
-4.69009
11
5.44015
21
-4.68778
0
LINE
8
BLACK
6
CONTINUOUS
10
5.44015
20
-4.68778
11
5.45
21
-4.68701
0
LINE
8
BLACK
6
CONTINUOUS
10
5.45
20
-4.68701
11
5.45985
21
-4.68778
0
LINE
8
BLACK
6
CONTINUOUS
10
6.55985
20
-4.68778
11
6.56947
21
-4.69009
0
LINE
8
BLACK
6
CONTINUOUS
10
6.56947
20
-4.69009
11
6.5786
21
-4.69387
0
LINE
8
BLACK
6
CONTINUOUS
10
6.5786
20
-4.69387
11
6.58703
21
-4.69904
0
LINE
8
BLACK
6
CONTINUOUS
10
6.58703
20
-4.69904
11
6.59454
21
-4.70546
0
LINE
8
BLACK
6
CONTINUOUS
10
6.59454
20
-4.70546
11
6.60096
21
-4.71297
0
LINE
8
BLACK
6
CONTINUOUS
10
6.60096
20
-4.71297
11
6.60613
21
-4.7214
0
LINE
8
BLACK
6
CONTINUOUS
10
6.60613
20
-4.7214
11
6.60991
21
-4.73053
0
LINE
8
BLACK
6
CONTINUOUS
10
6.60991
20
-4.73053
11
6.61222
21
-4.74015
0
LINE
8
BLACK
6
CONTINUOUS
10
6.61222
20
-4.74015
11
6.61299
21
-4.75
0
LINE
8
BLACK
6
CONTINUOUS
10
6.61299
20
-4.75
11
6.61222
21
-4.75985
0
LINE
8
BLACK
6
CONTINUOUS
10
6.61222
20
-4.75985
11
6.60991
21
-4.76947
0
LINE
8
BLACK
6
CONTINUOUS
10
6.60991
20
-4.76947
11
6.60613
21
-4.7786
0
LINE
8
BLACK
6
CONTINUOUS
10
6.60613
20
-4.7786
11
6.60096
21
-4.78703
0
LINE
8
BLACK
6
CONTINUOUS
10
6.60096
20
-4.78703
11
6.59454
21
-4.79454
0
LINE
8
BLACK
6
CONTINUOUS
10
6.59454
20
-4.79454
11
6.58703
21
-4.80096
0
LINE
8
BLACK
6
CONTINUOUS
10
6.58703
20
-4.80096
11
6.5786
21
-4.80613
0
LINE
8
BLACK
6
CONTINUOUS
10
6.5786
20
-4.80613
11
6.56947
21
-4.80991
0
LINE
8
BLACK
6
CONTINUOUS
10
6.56947
20
-4.80991
11
6.55985
21
-4.81222
0
LINE
8
BLACK
6
CONTINUOUS
10
6.55985
20
-4.81222
11
6.55
21
-4.81299
0
LINE
8
BLACK
6
CONTINUOUS
10
6.55
20
-4.81299
11
6.54015
21
-4.81222
0
LINE
8
BLACK
6
CONTINUOUS
10
6.54015
20
-4.81222
11
6.53053
21
-4.80991
0
LINE
8
BLACK
6
CONTINUOUS
10
6.53053
20
-4.80991
11
6.5214
21
-4.80613
0
LINE
8
BLACK
6
CONTINUOUS
10
6.5214
20
-4.80613
11
6.51297
21
-4.80096
0
LINE
8
BLACK
6
CONTINUOUS
10
6.51297
20
-4.80096
11
6.50546
21
-4.79454
0
LINE
8
BLACK
6
CONTINUOUS
10
6.50546
20
-4.79454
11
6.49904
21
-4.78703
0
LINE
8
BLACK
6
CONTINUOUS
10
6.49904
20
-4.78703
11
6.49387
21
-4.7786
0
LINE
8
BLACK
6
CONTINUOUS
10
6.49387
20
-4.7786
11
6.49009
21
-4.76947
0
LINE
8
BLACK
6
CONTINUOUS
10
6.49009
20
-4.76947
11
6.48778
21
-4.75985
0
LINE
8
BLACK
6
CONTINUOUS
10
6.48778
20
-4.75985
11
6.48701
21
-4.75
0
LINE
8
BLACK
6
CONTINUOUS
10
6.48701
20
-4.75
11
6.48778
21
-4.74015
0
LINE
8
BLACK
6
CONTINUOUS
10
6.48778
20
-4.74015
11
6.49009
21
-4.73053
0
LINE
8
BLACK
6
CONTINUOUS
10
6.49009
20
-4.73053
11
6.49387
21
-4.7214
0
LINE
8
BLACK
6
CONTINUOUS
10
6.49387
20
-4.7214
11
6.49904
21
-4.71297
0
LINE
8
BLACK
6
CONTINUOUS
10
6.49904
20
-4.71297
11
6.50546
21
-4.70546
0
LINE
8
BLACK
6
CONTINUOUS
10
6.50546
20
-4.70546
11
6.51297
21
-4.69904
0
LINE
8
BLACK
6
CONTINUOUS
10
6.51297
20
-4.69904
11
6.5214
21
-4.69387
0
LINE
8
BLACK
6
CONTINUOUS
10
6.5214
20
-4.69387
11
6.53053
21
-4.69009
0
LINE
8
BLACK
6
CONTINUOUS
10
6.53053
20
-4.69009
11
6.54015
21
-4.68778
0
LINE
8
BLACK
6
CONTINUOUS
10
6.54015
20
-4.68778
11
6.55
21
-4.68701
0
LINE
8
BLACK
6
CONTINUOUS
10
6.55
20
-4.68701
11
6.55985
21
-4.68778
0
LINE
8
BLACK
6
CONTINUOUS
10
5.82148
20
-4.75587
11
5.82468
21
-4.758
0
LINE
8
BLACK
6
CONTINUOUS
10
5.82468
20
-4.758
11
5.82681
21
-4.76119
0
LINE
8
BLACK
6
CONTINUOUS
10
5.82681
20
-4.76119
11
5.82756
21
-4.76496
0
LINE
8
BLACK
6
CONTINUOUS
10
5.82756
20
-4.76496
11
5.82756
21
-4.79252
0
LINE
8
BLACK
6
CONTINUOUS
10
5.82756
20
-4.79252
11
5.82681
21
-4.79629
0
LINE
8
BLACK
6
CONTINUOUS
10
5.82681
20
-4.79629
11
5.82468
21
-4.79948
0
LINE
8
BLACK
6
CONTINUOUS
10
5.82468
20
-4.79948
11
5.82148
21
-4.80161
0
LINE
8
BLACK
6
CONTINUOUS
10
5.82148
20
-4.80161
11
5.81772
21
-4.80236
0
LINE
8
BLACK
6
CONTINUOUS
10
5.81772
20
-4.80236
11
5.78228
21
-4.80236
0
LINE
8
BLACK
6
CONTINUOUS
10
5.78228
20
-4.80236
11
5.77852
21
-4.80161
0
LINE
8
BLACK
6
CONTINUOUS
10
5.77852
20
-4.80161
11
5.77532
21
-4.79948
0
LINE
8
BLACK
6
CONTINUOUS
10
5.77532
20
-4.79948
11
5.77319
21
-4.79629
0
LINE
8
BLACK
6
CONTINUOUS
10
5.77319
20
-4.79629
11
5.77244
21
-4.79252
0
LINE
8
BLACK
6
CONTINUOUS
10
5.77244
20
-4.79252
11
5.77244
21
-4.76496
0
LINE
8
BLACK
6
CONTINUOUS
10
5.77244
20
-4.76496
11
5.77319
21
-4.76119
0
LINE
8
BLACK
6
CONTINUOUS
10
5.77319
20
-4.76119
11
5.77532
21
-4.758
0
LINE
8
BLACK
6
CONTINUOUS
10
5.77532
20
-4.758
11
5.77852
21
-4.75587
0
LINE
8
BLACK
6
CONTINUOUS
10
5.77852
20
-4.75587
11
5.78228
21
-4.75512
0
LINE
8
BLACK
6
CONTINUOUS
10
5.78228
20
-4.75512
11
5.81772
21
-4.75512
0
LINE
8
BLACK
6
CONTINUOUS
10
5.81772
20
-4.75512
11
5.82148
21
-4.75587
0
LINE
8
BLACK
6
CONTINUOUS
10
6.22148
20
-4.75587
11
6.22468
21
-4.758
0
LINE
8
BLACK
6
CONTINUOUS
10
6.22468
20
-4.758
11
6.22681
21
-4.76119
0
LINE
8
BLACK
6
CONTINUOUS
10
6.22681
20
-4.76119
11
6.22756
21
-4.76496
0
LINE
8
BLACK
6
CONTINUOUS
10
6.22756
20
-4.76496
11
6.22756
21
-4.79252
0
LINE
8
BLACK
6
CONTINUOUS
10
6.22756
20
-4.79252
11
6.22681
21
-4.79629
0
LINE
8
BLACK
6
CONTINUOUS
10
6.22681
20
-4.79629
11
6.22468
21
-4.79948
0
LINE
8
BLACK
6
CONTINUOUS
10
6.22468
20
-4.79948
11
6.22148
21
-4.80161
0
LINE
8
BLACK
6
CONTINUOUS
10
6.22148
20
-4.80161
11
6.21772
21
-4.80236
0
LINE
8
BLACK
6
CONTINUOUS
10
6.21772
20
-4.80236
11
6.18228
21
-4.80236
0
LINE
8
BLACK
6
CONTINUOUS
10
6.18228
20
-4.80236
11
6.17852
21
-4.80161
0
LINE
8
BLACK
6
CONTINUOUS
10
6.17852
20
-4.80161
11
6.17532
21
-4.79948
0
LINE
8
BLACK
6
CONTINUOUS
10
6.17532
20
-4.79948
11
6.17319
21
-4.79629
0
LINE
8
BLACK
6
CONTINUOUS
10
6.17319
20
-4.79629
11
6.17244
21
-4.79252
0
LINE
8
BLACK
6
CONTINUOUS
10
6.17244
20
-4.79252
11
6.17244
21
-4.76496
0
LINE
8
BLACK
6
CONTINUOUS
10
6.17244
20
-4.76496
11
6.17319
21
-4.76119
0
LINE
8
BLACK
6
CONTINUOUS
10
6.17319
20
-4.76119
11
6.17532
21
-4.758
0
LINE
8
BLACK
6
CONTINUOUS
10
6.17532
20
-4.758
11
6.17852
21
-4.75587
0
LINE
8
BLACK
6
CONTINUOUS
10
6.17852
20
-4.75587
11
6.18228
21
-4.75512
0
LINE
8
BLACK
6
CONTINUOUS
10
6.18228
20
-4.75512
11
6.21772
21
-4.75512
0
LINE
8
BLACK
6
CONTINUOUS
10
6.21772
20
-4.75512
11
6.22148
21
-4.75587
0
LINE
8
BLACK
6
CONTINUOUS
10
5.82148
20
-4.67713
11
5.82468
21
-4.67926
0
LINE
8
BLACK
6
CONTINUOUS
10
5.82468
20
-4.67926
11
5.82681
21
-4.68245
0
LINE
8
BLACK
6
CONTINUOUS
10
5.82681
20
-4.68245
11
5.82756
21
-4.68622
0
LINE
8
BLACK
6
CONTINUOUS
10
5.82756
20
-4.68622
11
5.82756
21
-4.71378
0
LINE
8
BLACK
6
CONTINUOUS
10
5.82756
20
-4.71378
11
5.82681
21
-4.71755
0
LINE
8
BLACK
6
CONTINUOUS
10
5.82681
20
-4.71755
11
5.82468
21
-4.72074
0
LINE
8
BLACK
6
CONTINUOUS
10
5.82468
20
-4.72074
11
5.82148
21
-4.72287
0
LINE
8
BLACK
6
CONTINUOUS
10
5.82148
20
-4.72287
11
5.81772
21
-4.72362
0
LINE
8
BLACK
6
CONTINUOUS
10
5.81772
20
-4.72362
11
5.78228
21
-4.72362
0
LINE
8
BLACK
6
CONTINUOUS
10
5.78228
20
-4.72362
11
5.77852
21
-4.72287
0
LINE
8
BLACK
6
CONTINUOUS
10
5.77852
20
-4.72287
11
5.77532
21
-4.72074
0
LINE
8
BLACK
6
CONTINUOUS
10
5.77532
20
-4.72074
11
5.77319
21
-4.71755
0
LINE
8
BLACK
6
CONTINUOUS
10
5.77319
20
-4.71755
11
5.77244
21
-4.71378
0
LINE
8
BLACK
6
CONTINUOUS
10
5.77244
20
-4.71378
11
5.77244
21
-4.68622
0
LINE
8
BLACK
6
CONTINUOUS
10
5.77244
20
-4.68622
11
5.77319
21
-4.68245
0
LINE
8
BLACK
6
CONTINUOUS
10
5.77319
20
-4.68245
11
5.77532
21
-4.67926
0
LINE
8
BLACK
6
CONTINUOUS
10
5.77532
20
-4.67926
11
5.77852
21
-4.67713
0
LINE
8
BLACK
6
CONTINUOUS
10
5.77852
20
-4.67713
11
5.78228
21
-4.67638
0
LINE
8
BLACK
6
CONTINUOUS
10
5.78228
20
-4.67638
11
5.81772
21
-4.67638
0
LINE
8
BLACK
6
CONTINUOUS
10
5.81772
20
-4.67638
11
5.82148
21
-4.67713
0
LINE
8
BLACK
6
CONTINUOUS
10
6.22148
20
-4.67713
11
6.22468
21
-4.67926
0
LINE
8
BLACK
6
CONTINUOUS
10
6.22468
20
-4.67926
11
6.22681
21
-4.68245
0
LINE
8
BLACK
6
CONTINUOUS
10
6.22681
20
-4.68245
11
6.22756
21
-4.68622
0
LINE
8
BLACK
6
CONTINUOUS
10
6.22756
20
-4.68622
11
6.22756
21
-4.71378
0
LINE
8
BLACK
6
CONTINUOUS
10
6.22756
20
-4.71378
11
6.22681
21
-4.71755
0
LINE
8
BLACK
6
CONTINUOUS
10
6.22681
20
-4.71755
11
6.22468
21
-4.72074
0
LINE
8
BLACK
6
CONTINUOUS
10
6.22468
20
-4.72074
11
6.22148
21
-4.72287
0
LINE
8
BLACK
6
CONTINUOUS
10
6.22148
20
-4.72287
11
6.21772
21
-4.72362
0
LINE
8
BLACK
6
CONTINUOUS
10
6.21772
20
-4.72362
11
6.18228
21
-4.72362
0
LINE
8
BLACK
6
CONTINUOUS
10
6.18228
20
-4.72362
11
6.17852
21
-4.72287
0
LINE
8
BLACK
6
CONTINUOUS
10
6.17852
20
-4.72287
11
6.17532
21
-4.72074
0
LINE
8
BLACK
6
CONTINUOUS
10
6.17532
20
-4.72074
11
6.17319
21
-4.71755
0
LINE
8
BLACK
6
CONTINUOUS
10
6.17319
20
-4.71755
11
6.17244
21
-4.71378
0
LINE
8
BLACK
6
CONTINUOUS
10
6.17244
20
-4.71378
11
6.17244
21
-4.68622
0
LINE
8
BLACK
6
CONTINUOUS
10
6.17244
20
-4.68622
11
6.17319
21
-4.68245
0
LINE
8
BLACK
6
CONTINUOUS
10
6.17319
20
-4.68245
11
6.17532
21
-4.67926
0
LINE
8
BLACK
6
CONTINUOUS
10
6.17532
20
-4.67926
11
6.17852
21
-4.67713
0
LINE
8
BLACK
6
CONTINUOUS
10
6.17852
20
-4.67713
11
6.18228
21
-4.67638
0
LINE
8
BLACK
6
CONTINUOUS
10
6.18228
20
-4.67638
11
6.21772
21
-4.67638
0
LINE
8
BLACK
6
CONTINUOUS
10
6.21772
20
-4.67638
11
6.22148
21
-4.67713
0
LINE
8
BLACK
6
CONTINUOUS
10
6.04921
20
-4.69921
11
5.95079
21
-4.69921
0
LINE
8
BLACK
6
CONTINUOUS
10
5.95079
20
-4.69921
11
5.95079
21
-4.60079
0
LINE
8
BLACK
6
CONTINUOUS
10
5.95079
20
-4.60079
11
6.04921
21
-4.60079
0
LINE
8
BLACK
6
CONTINUOUS
10
6.04921
20
-4.60079
11
6.04921
21
-4.69921
0
LINE
8
BLACK
6
CONTINUOUS
10
5.74921
20
-4.54921
11
5.65079
21
-4.54921
0
LINE
8
BLACK
6
CONTINUOUS
10
5.65079
20
-4.54921
11
5.65079
21
-4.45079
0
LINE
8
BLACK
6
CONTINUOUS
10
5.65079
20
-4.45079
11
5.74921
21
-4.45079
0
LINE
8
BLACK
6
CONTINUOUS
10
5.74921
20
-4.45079
11
5.74921
21
-4.54921
0
LINE
8
BLACK
6
CONTINUOUS
10
6.34921
20
-4.54921
11
6.25079
21
-4.54921
0
LINE
8
BLACK
6
CONTINUOUS
10
6.25079
20
-4.54921
11
6.25079
21
-4.45079
0
LINE
8
BLACK
6
CONTINUOUS
10
6.25079
20
-4.45079
11
6.34921
21
-4.45079
0
LINE
8
BLACK
6
CONTINUOUS
10
6.34921
20
-4.45079
11
6.34921
21
-4.54921
0
LINE
8
BLACK
6
CONTINUOUS
10
5.43881
20
-4.37319
11
5.442
21
-4.37532
0
LINE
8
BLACK
6
CONTINUOUS
10
5.442
20
-4.37532
11
5.44413
21
-4.37852
0
LINE
8
BLACK
6
CONTINUOUS
10
5.44413
20
-4.37852
11
5.44488
21
-4.38228
0
LINE
8
BLACK
6
CONTINUOUS
10
5.44488
20
-4.38228
11
5.44488
21
-4.41772
0
LINE
8
BLACK
6
CONTINUOUS
10
5.44488
20
-4.41772
11
5.44413
21
-4.42148
0
LINE
8
BLACK
6
CONTINUOUS
10
5.44413
20
-4.42148
11
5.442
21
-4.42468
0
LINE
8
BLACK
6
CONTINUOUS
10
5.442
20
-4.42468
11
5.43881
21
-4.42681
0
LINE
8
BLACK
6
CONTINUOUS
10
5.43881
20
-4.42681
11
5.43504
21
-4.42756
0
LINE
8
BLACK
6
CONTINUOUS
10
5.43504
20
-4.42756
11
5.40748
21
-4.42756
0
LINE
8
BLACK
6
CONTINUOUS
10
5.40748
20
-4.42756
11
5.40371
21
-4.42681
0
LINE
8
BLACK
6
CONTINUOUS
10
5.40371
20
-4.42681
11
5.40052
21
-4.42468
0
LINE
8
BLACK
6
CONTINUOUS
10
5.40052
20
-4.42468
11
5.39839
21
-4.42148
0
LINE
8
BLACK
6
CONTINUOUS
10
5.39839
20
-4.42148
11
5.39764
21
-4.41772
0
LINE
8
BLACK
6
CONTINUOUS
10
5.39764
20
-4.41772
11
5.39764
21
-4.38228
0
LINE
8
BLACK
6
CONTINUOUS
10
5.39764
20
-4.38228
11
5.39839
21
-4.37852
0
LINE
8
BLACK
6
CONTINUOUS
10
5.39839
20
-4.37852
11
5.40052
21
-4.37532
0
LINE
8
BLACK
6
CONTINUOUS
10
5.40052
20
-4.37532
11
5.40371
21
-4.37319
0
LINE
8
BLACK
6
CONTINUOUS
10
5.40371
20
-4.37319
11
5.40748
21
-4.37244
0
LINE
8
BLACK
6
CONTINUOUS
10
5.40748
20
-4.37244
11
5.43504
21
-4.37244
0
LINE
8
BLACK
6
CONTINUOUS
10
5.43504
20
-4.37244
11
5.43881
21
-4.37319
0
LINE
8
BLACK
6
CONTINUOUS
10
5.51755
20
-4.37319
11
5.52074
21
-4.37532
0
LINE
8
BLACK
6
CONTINUOUS
10
5.52074
20
-4.37532
11
5.52287
21
-4.37852
0
LINE
8
BLACK
6
CONTINUOUS
10
5.52287
20
-4.37852
11
5.52362
21
-4.38228
0
LINE
8
BLACK
6
CONTINUOUS
10
5.52362
20
-4.38228
11
5.52362
21
-4.41772
0
LINE
8
BLACK
6
CONTINUOUS
10
5.52362
20
-4.41772
11
5.52287
21
-4.42148
0
LINE
8
BLACK
6
CONTINUOUS
10
5.52287
20
-4.42148
11
5.52074
21
-4.42468
0
LINE
8
BLACK
6
CONTINUOUS
10
5.52074
20
-4.42468
11
5.51755
21
-4.42681
0
LINE
8
BLACK
6
CONTINUOUS
10
5.51755
20
-4.42681
11
5.51378
21
-4.42756
0
LINE
8
BLACK
6
CONTINUOUS
10
5.51378
20
-4.42756
11
5.48622
21
-4.42756
0
LINE
8
BLACK
6
CONTINUOUS
10
5.48622
20
-4.42756
11
5.48245
21
-4.42681
0
LINE
8
BLACK
6
CONTINUOUS
10
5.48245
20
-4.42681
11
5.47926
21
-4.42468
0
LINE
8
BLACK
6
CONTINUOUS
10
5.47926
20
-4.42468
11
5.47713
21
-4.42148
0
LINE
8
BLACK
6
CONTINUOUS
10
5.47713
20
-4.42148
11
5.47638
21
-4.41772
0
LINE
8
BLACK
6
CONTINUOUS
10
5.47638
20
-4.41772
11
5.47638
21
-4.38228
0
LINE
8
BLACK
6
CONTINUOUS
10
5.47638
20
-4.38228
11
5.47713
21
-4.37852
0
LINE
8
BLACK
6
CONTINUOUS
10
5.47713
20
-4.37852
11
5.47926
21
-4.37532
0
LINE
8
BLACK
6
CONTINUOUS
10
5.47926
20
-4.37532
11
5.48245
21
-4.37319
0
LINE
8
BLACK
6
CONTINUOUS
10
5.48245
20
-4.37319
11
5.48622
21
-4.37244
0
LINE
8
BLACK
6
CONTINUOUS
10
5.48622
20
-4.37244
11
5.51378
21
-4.37244
0
LINE
8
BLACK
6
CONTINUOUS
10
5.51378
20
-4.37244
11
5.51755
21
-4.37319
0
LINE
8
BLACK
6
CONTINUOUS
10
6.51755
20
-4.37319
11
6.52074
21
-4.37532
0
LINE
8
BLACK
6
CONTINUOUS
10
6.52074
20
-4.37532
11
6.52287
21
-4.37852
0
LINE
8
BLACK
6
CONTINUOUS
10
6.52287
20
-4.37852
11
6.52362
21
-4.38228
0
LINE
8
BLACK
6
CONTINUOUS
10
6.52362
20
-4.38228
11
6.52362
21
-4.41772
0
LINE
8
BLACK
6
CONTINUOUS
10
6.52362
20
-4.41772
11
6.52287
21
-4.42148
0
LINE
8
BLACK
6
CONTINUOUS
10
6.52287
20
-4.42148
11
6.52074
21
-4.42468
0
LINE
8
BLACK
6
CONTINUOUS
10
6.52074
20
-4.42468
11
6.51755
21
-4.42681
0
LINE
8
BLACK
6
CONTINUOUS
10
6.51755
20
-4.42681
11
6.51378
21
-4.42756
0
LINE
8
BLACK
6
CONTINUOUS
10
6.51378
20
-4.42756
11
6.48622
21
-4.42756
0
LINE
8
BLACK
6
CONTINUOUS
10
6.48622
20
-4.42756
11
6.48245
21
-4.42681
0
LINE
8
BLACK
6
CONTINUOUS
10
6.48245
20
-4.42681
11
6.47926
21
-4.42468
0
LINE
8
BLACK
6
CONTINUOUS
10
6.47926
20
-4.42468
11
6.47713
21
-4.42148
0
LINE
8
BLACK
6
CONTINUOUS
10
6.47713
20
-4.42148
11
6.47638
21
-4.41772
0
LINE
8
BLACK
6
CONTINUOUS
10
6.47638
20
-4.41772
11
6.47638
21
-4.38228
0
LINE
8
BLACK
6
CONTINUOUS
10
6.47638
20
-4.38228
11
6.47713
21
-4.37852
0
LINE
8
BLACK
6
CONTINUOUS
10
6.47713
20
-4.37852
11
6.47926
21
-4.37532
0
LINE
8
BLACK
6
CONTINUOUS
10
6.47926
20
-4.37532
11
6.48245
21
-4.37319
0
LINE
8
BLACK
6
CONTINUOUS
10
6.48245
20
-4.37319
11
6.48622
21
-4.37244
0
LINE
8
BLACK
6
CONTINUOUS
10
6.48622
20
-4.37244
11
6.51378
21
-4.37244
0
LINE
8
BLACK
6
CONTINUOUS
10
6.51378
20
-4.37244
11
6.51755
21
-4.37319
0
LINE
8
BLACK
6
CONTINUOUS
10
6.59629
20
-4.37319
11
6.59948
21
-4.37532
0
LINE
8
BLACK
6
CONTINUOUS
10
6.59948
20
-4.37532
11
6.60161
21
-4.37852
0
LINE
8
BLACK
6
CONTINUOUS
10
6.60161
20
-4.37852
11
6.60236
21
-4.38228
0
LINE
8
BLACK
6
CONTINUOUS
10
6.60236
20
-4.38228
11
6.60236
21
-4.41772
0
LINE
8
BLACK
6
CONTINUOUS
10
6.60236
20
-4.41772
11
6.60161
21
-4.42148
0
LINE
8
BLACK
6
CONTINUOUS
10
6.60161
20
-4.42148
11
6.59948
21
-4.42468
0
LINE
8
BLACK
6
CONTINUOUS
10
6.59948
20
-4.42468
11
6.59629
21
-4.42681
0
LINE
8
BLACK
6
CONTINUOUS
10
6.59629
20
-4.42681
11
6.59252
21
-4.42756
0
LINE
8
BLACK
6
CONTINUOUS
10
6.59252
20
-4.42756
11
6.56496
21
-4.42756
0
LINE
8
BLACK
6
CONTINUOUS
10
6.56496
20
-4.42756
11
6.56119
21
-4.42681
0
LINE
8
BLACK
6
CONTINUOUS
10
6.56119
20
-4.42681
11
6.558
21
-4.42468
0
LINE
8
BLACK
6
CONTINUOUS
10
6.558
20
-4.42468
11
6.55587
21
-4.42148
0
LINE
8
BLACK
6
CONTINUOUS
10
6.55587
20
-4.42148
11
6.55512
21
-4.41772
0
LINE
8
BLACK
6
CONTINUOUS
10
6.55512
20
-4.41772
11
6.55512
21
-4.38228
0
LINE
8
BLACK
6
CONTINUOUS
10
6.55512
20
-4.38228
11
6.55587
21
-4.37852
0
LINE
8
BLACK
6
CONTINUOUS
10
6.55587
20
-4.37852
11
6.558
21
-4.37532
0
LINE
8
BLACK
6
CONTINUOUS
10
6.558
20
-4.37532
11
6.56119
21
-4.37319
0
LINE
8
BLACK
6
CONTINUOUS
10
6.56119
20
-4.37319
11
6.56496
21
-4.37244
0
LINE
8
BLACK
6
CONTINUOUS
10
6.56496
20
-4.37244
11
6.59252
21
-4.37244
0
LINE
8
BLACK
6
CONTINUOUS
10
6.59252
20
-4.37244
11
6.59629
21
-4.37319
0
LINE
8
BLACK
6
CONTINUOUS
10
5.90668
20
-4.27075
11
5.91302
21
-4.27297
0
LINE
8
BLACK
6
CONTINUOUS
10
5.91302
20
-4.27297
11
5.9187
21
-4.27655
0
LINE
8
BLACK
6
CONTINUOUS
10
5.9187
20
-4.27655
11
5.92345
21
-4.2813
0
LINE
8
BLACK
6
CONTINUOUS
10
5.92345
20
-4.2813
11
5.92703
21
-4.28698
0
LINE
8
BLACK
6
CONTINUOUS
10
5.92703
20
-4.28698
11
5.92925
21
-4.29332
0
LINE
8
BLACK
6
CONTINUOUS
10
5.92925
20
-4.29332
11
5.93
21
-4.3
0
LINE
8
BLACK
6
CONTINUOUS
10
5.93
20
-4.3
11
5.92925
21
-4.30668
0
LINE
8
BLACK
6
CONTINUOUS
10
5.92925
20
-4.30668
11
5.92703
21
-4.31302
0
LINE
8
BLACK
6
CONTINUOUS
10
5.92703
20
-4.31302
11
5.92345
21
-4.3187
0
LINE
8
BLACK
6
CONTINUOUS
10
5.92345
20
-4.3187
11
5.9187
21
-4.32345
0
LINE
8
BLACK
6
CONTINUOUS
10
5.9187
20
-4.32345
11
5.91302
21
-4.32703
0
LINE
8
BLACK
6
CONTINUOUS
10
5.91302
20
-4.32703
11
5.90668
21
-4.32925
0
LINE
8
BLACK
6
CONTINUOUS
10
5.90668
20
-4.32925
11
5.9
21
-4.33
0
LINE
8
BLACK
6
CONTINUOUS
10
5.9
20
-4.33
11
5.89332
21
-4.32925
0
LINE
8
BLACK
6
CONTINUOUS
10
5.89332
20
-4.32925
11
5.88698
21
-4.32703
0
LINE
8
BLACK
6
CONTINUOUS
10
5.88698
20
-4.32703
11
5.8813
21
-4.32345
0
LINE
8
BLACK
6
CONTINUOUS
10
5.8813
20
-4.32345
11
5.87655
21
-4.3187
0
LINE
8
BLACK
6
CONTINUOUS
10
5.87655
20
-4.3187
11
5.87297
21
-4.31302
0
LINE
8
BLACK
6
CONTINUOUS
10
5.87297
20
-4.31302
11
5.87075
21
-4.30668
0
LINE
8
BLACK
6
CONTINUOUS
10
5.87075
20
-4.30668
11
5.87
21
-4.3
0
LINE
8
BLACK
6
CONTINUOUS
10
5.87
20
-4.3
11
5.87075
21
-4.29332
0
LINE
8
BLACK
6
CONTINUOUS
10
5.87075
20
-4.29332
11
5.87297
21
-4.28698
0
LINE
8
BLACK
6
CONTINUOUS
10
5.87297
20
-4.28698
11
5.87655
21
-4.2813
0
LINE
8
BLACK
6
CONTINUOUS
10
5.87655
20
-4.2813
11
5.8813
21
-4.27655
0
LINE
8
BLACK
6
CONTINUOUS
10
5.8813
20
-4.27655
11
5.88698
21
-4.27297
0
LINE
8
BLACK
6
CONTINUOUS
10
5.88698
20
-4.27297
11
5.89332
21
-4.27075
0
LINE
8
BLACK
6
CONTINUOUS
10
5.89332
20
-4.27075
11
5.9
21
-4.27
0
LINE
8
BLACK
6
CONTINUOUS
10
5.9
20
-4.27
11
5.90668
21
-4.27075
0
LINE
8
BLACK
6
CONTINUOUS
10
6.00668
20
-4.27075
11
6.01302
21
-4.27297
0
LINE
8
BLACK
6
CONTINUOUS
10
6.01302
20
-4.27297
11
6.0187
21
-4.27655
0
LINE
8
BLACK
6
CONTINUOUS
10
6.0187
20
-4.27655
11
6.02345
21
-4.2813
0
LINE
8
BLACK
6
CONTINUOUS
10
6.02345
20
-4.2813
11
6.02703
21
-4.28698
0
LINE
8
BLACK
6
CONTINUOUS
10
6.02703
20
-4.28698
11
6.02925
21
-4.29332
0
LINE
8
BLACK
6
CONTINUOUS
10
6.02925
20
-4.29332
11
6.03
21
-4.3
0
LINE
8
BLACK
6
CONTINUOUS
10
6.03
20
-4.3
11
6.02925
21
-4.30668
0
LINE
8
BLACK
6
CONTINUOUS
10
6.02925
20
-4.30668
11
6.02703
21
-4.31302
0
LINE
8
BLACK
6
CONTINUOUS
10
6.02703
20
-4.31302
11
6.02345
21
-4.3187
0
LINE
8
BLACK
6
CONTINUOUS
10
6.02345
20
-4.3187
11
6.0187
21
-4.32345
0
LINE
8
BLACK
6
CONTINUOUS
10
6.0187
20
-4.32345
11
6.01302
21
-4.32703
0
LINE
8
BLACK
6
CONTINUOUS
10
6.01302
20
-4.32703
11
6.00668
21
-4.32925
0
LINE
8
BLACK
6
CONTINUOUS
10
6.00668
20
-4.32925
11
6
21
-4.33
0
LINE
8
BLACK
6
CONTINUOUS
10
6
20
-4.33
11
5.99332
21
-4.32925
0
LINE
8
BLACK
6
CONTINUOUS
10
5.99332
20
-4.32925
11
5.98698
21
-4.32703
0
LINE
8
BLACK
6
CONTINUOUS
10
5.98698
20
-4.32703
11
5.9813
21
-4.32345
0
LINE
8
BLACK
6
CONTINUOUS
10
5.9813
20
-4.32345
11
5.97655
21
-4.3187
0
LINE
8
BLACK
6
CONTINUOUS
10
5.97655
20
-4.3187
11
5.97297
21
-4.31302
0
LINE
8
BLACK
6
CONTINUOUS
10
5.97297
20
-4.31302
11
5.97075
21
-4.30668
0
LINE
8
BLACK
6
CONTINUOUS
10
5.97075
20
-4.30668
11
5.97
21
-4.3
0
LINE
8
BLACK
6
CONTINUOUS
10
5.97
20
-4.3
11
5.97075
21
-4.29332
0
LINE
8
BLACK
6
CONTINUOUS
10
5.97075
20
-4.29332
11
5.97297
21
-4.28698
0
LINE
8
BLACK
6
CONTINUOUS
10
5.97297
20
-4.28698
11
5.97655
21
-4.2813
0
LINE
8
BLACK
6
CONTINUOUS
10
5.97655
20
-4.2813
11
5.9813
21
-4.27655
0
LINE
8
BLACK
6
CONTINUOUS
10
5.9813
20
-4.27655
11
5.98698
21
-4.27297
0
LINE
8
BLACK
6
CONTINUOUS
10
5.98698
20
-4.27297
11
5.99332
21
-4.27075
0
LINE
8
BLACK
6
CONTINUOUS
10
5.99332
20
-4.27075
11
6
21
-4.27
0
LINE
8
BLACK
6
CONTINUOUS
10
6
20
-4.27
11
6.00668
21
-4.27075
0
LINE
8
BLACK
6
CONTINUOUS
10
6.10668
20
-4.27075
11
6.11302
21
-4.27297
0
LINE
8
BLACK
6
CONTINUOUS
10
6.11302
20
-4.27297
11
6.1187
21
-4.27655
0
LINE
8
BLACK
6
CONTINUOUS
10
6.1187
20
-4.27655
11
6.12345
21
-4.2813
0
LINE
8
BLACK
6
CONTINUOUS
10
6.12345
20
-4.2813
11
6.12703
21
-4.28698
0
LINE
8
BLACK
6
CONTINUOUS
10
6.12703
20
-4.28698
11
6.12925
21
-4.29332
0
LINE
8
BLACK
6
CONTINUOUS
10
6.12925
20
-4.29332
11
6.13
21
-4.3
0
LINE
8
BLACK
6
CONTINUOUS
10
6.13
20
-4.3
11
6.12925
21
-4.30668
0
LINE
8
BLACK
6
CONTINUOUS
10
6.12925
20
-4.30668
11
6.12703
21
-4.31302
0
LINE
8
BLACK
6
CONTINUOUS
10
6.12703
20
-4.31302
11
6.12345
21
-4.3187
0
LINE
8
BLACK
6
CONTINUOUS
10
6.12345
20
-4.3187
11
6.1187
21
-4.32345
0
LINE
8
BLACK
6
CONTINUOUS
10
6.1187
20
-4.32345
11
6.11302
21
-4.32703
0
LINE
8
BLACK
6
CONTINUOUS
10
6.11302
20
-4.32703
11
6.10668
21
-4.32925
0
LINE
8
BLACK
6
CONTINUOUS
10
6.10668
20
-4.32925
11
6.1
21
-4.33
0
LINE
8
BLACK
6
CONTINUOUS
10
6.1
20
-4.33
11
6.09332
21
-4.32925
0
LINE
8
BLACK
6
CONTINUOUS
10
6.09332
20
-4.32925
11
6.08698
21
-4.32703
0
LINE
8
BLACK
6
CONTINUOUS
10
6.08698
20
-4.32703
11
6.0813
21
-4.32345
0
LINE
8
BLACK
6
CONTINUOUS
10
6.0813
20
-4.32345
11
6.07655
21
-4.3187
0
LINE
8
BLACK
6
CONTINUOUS
10
6.07655
20
-4.3187
11
6.07297
21
-4.31302
0
LINE
8
BLACK
6
CONTINUOUS
10
6.07297
20
-4.31302
11
6.07075
21
-4.30668
0
LINE
8
BLACK
6
CONTINUOUS
10
6.07075
20
-4.30668
11
6.07
21
-4.3
0
LINE
8
BLACK
6
CONTINUOUS
10
6.07
20
-4.3
11
6.07075
21
-4.29332
0
LINE
8
BLACK
6
CONTINUOUS
10
6.07075
20
-4.29332
11
6.07297
21
-4.28698
0
LINE
8
BLACK
6
CONTINUOUS
10
6.07297
20
-4.28698
11
6.07655
21
-4.2813
0
LINE
8
BLACK
6
CONTINUOUS
10
6.07655
20
-4.2813
11
6.0813
21
-4.27655
0
LINE
8
BLACK
6
CONTINUOUS
10
6.0813
20
-4.27655
11
6.08698
21
-4.27297
0
LINE
8
BLACK
6
CONTINUOUS
10
6.08698
20
-4.27297
11
6.09332
21
-4.27075
0
LINE
8
BLACK
6
CONTINUOUS
10
6.09332
20
-4.27075
11
6.1
21
-4.27
0
LINE
8
BLACK
6
CONTINUOUS
10
6.1
20
-4.27
11
6.10668
21
-4.27075
0
LINE
8
BLACK
6
CONTINUOUS
10
5.59921
20
-4.24921
11
5.50079
21
-4.24921
0
LINE
8
BLACK
6
CONTINUOUS
10
5.50079
20
-4.24921
11
5.50079
21
-4.15079
0
LINE
8
BLACK
6
CONTINUOUS
10
5.50079
20
-4.15079
11
5.59921
21
-4.15079
0
LINE
8
BLACK
6
CONTINUOUS
10
5.59921
20
-4.15079
11
5.59921
21
-4.24921
0
LINE
8
BLACK
6
CONTINUOUS
10
6.49921
20
-4.24921
11
6.40079
21
-4.24921
0
LINE
8
BLACK
6
CONTINUOUS
10
6.40079
20
-4.24921
11
6.40079
21
-4.15079
0
LINE
8
BLACK
6
CONTINUOUS
10
6.40079
20
-4.15079
11
6.49921
21
-4.15079
0
LINE
8
BLACK
6
CONTINUOUS
10
6.49921
20
-4.15079
11
6.49921
21
-4.24921
0
LINE
8
BLACK
6
CONTINUOUS
10
5.90668
20
-4.17075
11
5.91302
21
-4.17297
0
LINE
8
BLACK
6
CONTINUOUS
10
5.91302
20
-4.17297
11
5.9187
21
-4.17655
0
LINE
8
BLACK
6
CONTINUOUS
10
5.9187
20
-4.17655
11
5.92345
21
-4.1813
0
LINE
8
BLACK
6
CONTINUOUS
10
5.92345
20
-4.1813
11
5.92703
21
-4.18698
0
LINE
8
BLACK
6
CONTINUOUS
10
5.92703
20
-4.18698
11
5.92925
21
-4.19332
0
LINE
8
BLACK
6
CONTINUOUS
10
5.92925
20
-4.19332
11
5.93
21
-4.2
0
LINE
8
BLACK
6
CONTINUOUS
10
5.93
20
-4.2
11
5.92925
21
-4.20668
0
LINE
8
BLACK
6
CONTINUOUS
10
5.92925
20
-4.20668
11
5.92703
21
-4.21302
0
LINE
8
BLACK
6
CONTINUOUS
10
5.92703
20
-4.21302
11
5.92345
21
-4.2187
0
LINE
8
BLACK
6
CONTINUOUS
10
5.92345
20
-4.2187
11
5.9187
21
-4.22345
0
LINE
8
BLACK
6
CONTINUOUS
10
5.9187
20
-4.22345
11
5.91302
21
-4.22703
0
LINE
8
BLACK
6
CONTINUOUS
10
5.91302
20
-4.22703
11
5.90668
21
-4.22925
0
LINE
8
BLACK
6
CONTINUOUS
10
5.90668
20
-4.22925
11
5.9
21
-4.23
0
LINE
8
BLACK
6
CONTINUOUS
10
5.9
20
-4.23
11
5.89332
21
-4.22925
0
LINE
8
BLACK
6
CONTINUOUS
10
5.89332
20
-4.22925
11
5.88698
21
-4.22703
0
LINE
8
BLACK
6
CONTINUOUS
10
5.88698
20
-4.22703
11
5.8813
21
-4.22345
0
LINE
8
BLACK
6
CONTINUOUS
10
5.8813
20
-4.22345
11
5.87655
21
-4.2187
0
LINE
8
BLACK
6
CONTINUOUS
10
5.87655
20
-4.2187
11
5.87297
21
-4.21302
0
LINE
8
BLACK
6
CONTINUOUS
10
5.87297
20
-4.21302
11
5.87075
21
-4.20668
0
LINE
8
BLACK
6
CONTINUOUS
10
5.87075
20
-4.20668
11
5.87
21
-4.2
0
LINE
8
BLACK
6
CONTINUOUS
10
5.87
20
-4.2
11
5.87075
21
-4.19332
0
LINE
8
BLACK
6
CONTINUOUS
10
5.87075
20
-4.19332
11
5.87297
21
-4.18698
0
LINE
8
BLACK
6
CONTINUOUS
10
5.87297
20
-4.18698
11
5.87655
21
-4.1813
0
LINE
8
BLACK
6
CONTINUOUS
10
5.87655
20
-4.1813
11
5.8813
21
-4.17655
0
LINE
8
BLACK
6
CONTINUOUS
10
5.8813
20
-4.17655
11
5.88698
21
-4.17297
0
LINE
8
BLACK
6
CONTINUOUS
10
5.88698
20
-4.17297
11
5.89332
21
-4.17075
0
LINE
8
BLACK
6
CONTINUOUS
10
5.89332
20
-4.17075
11
5.9
21
-4.17
0
LINE
8
BLACK
6
CONTINUOUS
10
5.9
20
-4.17
11
5.90668
21
-4.17075
0
LINE
8
BLACK
6
CONTINUOUS
10
6.00668
20
-4.17075
11
6.01302
21
-4.17297
0
LINE
8
BLACK
6
CONTINUOUS
10
6.01302
20
-4.17297
11
6.0187
21
-4.17655
0
LINE
8
BLACK
6
CONTINUOUS
10
6.0187
20
-4.17655
11
6.02345
21
-4.1813
0
LINE
8
BLACK
6
CONTINUOUS
10
6.02345
20
-4.1813
11
6.02703
21
-4.18698
0
LINE
8
BLACK
6
CONTINUOUS
10
6.02703
20
-4.18698
11
6.02925
21
-4.19332
0
LINE
8
BLACK
6
CONTINUOUS
10
6.02925
20
-4.19332
11
6.03
21
-4.2
0
LINE
8
BLACK
6
CONTINUOUS
10
6.03
20
-4.2
11
6.02925
21
-4.20668
0
LINE
8
BLACK
6
CONTINUOUS
10
6.02925
20
-4.20668
11
6.02703
21
-4.21302
0
LINE
8
BLACK
6
CONTINUOUS
10
6.02703
20
-4.21302
11
6.02345
21
-4.2187
0
LINE
8
BLACK
6
CONTINUOUS
10
6.02345
20
-4.2187
11
6.0187
21
-4.22345
0
LINE
8
BLACK
6
CONTINUOUS
10
6.0187
20
-4.22345
11
6.01302
21
-4.22703
0
LINE
8
BLACK
6
CONTINUOUS
10
6.01302
20
-4.22703
11
6.00668
21
-4.22925
0
LINE
8
BLACK
6
CONTINUOUS
10
6.00668
20
-4.22925
11
6
21
-4.23
0
LINE
8
BLACK
6
CONTINUOUS
10
6
20
-4.23
11
5.99332
21
-4.22925
0
LINE
8
BLACK
6
CONTINUOUS
10
5.99332
20
-4.22925
11
5.98698
21
-4.22703
0
LINE
8
BLACK
6
CONTINUOUS
10
5.98698
20
-4.22703
11
5.9813
21
-4.22345
0
LINE
8
BLACK
6
CONTINUOUS
10
5.9813
20
-4.22345
11
5.97655
21
-4.2187
0
LINE
8
BLACK
6
CONTINUOUS
10
5.97655
20
-4.2187
11
5.97297
21
-4.21302
0
LINE
8
BLACK
6
CONTINUOUS
10
5.97297
20
-4.21302
11
5.97075
21
-4.20668
0
LINE
8
BLACK
6
CONTINUOUS
10
5.97075
20
-4.20668
11
5.97
21
-4.2
0
LINE
8
BLACK
6
CONTINUOUS
10
5.97
20
-4.2
11
5.97075
21
-4.19332
0
LINE
8
BLACK
6
CONTINUOUS
10
5.97075
20
-4.19332
11
5.97297
21
-4.18698
0
LINE
8
BLACK
6
CONTINUOUS
10
5.97297
20
-4.18698
11
5.97655
21
-4.1813
0
LINE
8
BLACK
6
CONTINUOUS
10
5.97655
20
-4.1813
11
5.9813
21
-4.17655
0
LINE
8
BLACK
6
CONTINUOUS
10
5.9813
20
-4.17655
11
5.98698
21
-4.17297
0
LINE
8
BLACK
6
CONTINUOUS
10
5.98698
20
-4.17297
11
5.99332
21
-4.17075
0
LINE
8
BLACK
6
CONTINUOUS
10
5.99332
20
-4.17075
11
6
21
-4.17
0
LINE
8
BLACK
6
CONTINUOUS
10
6
20
-4.17
11
6.00668
21
-4.17075
0
LINE
8
BLACK
6
CONTINUOUS
10
6.10668
20
-4.17075
11
6.11302
21
-4.17297
0
LINE
8
BLACK
6
CONTINUOUS
10
6.11302
20
-4.17297
11
6.1187
21
-4.17655
0
LINE
8
BLACK
6
CONTINUOUS
10
6.1187
20
-4.17655
11
6.12345
21
-4.1813
0
LINE
8
BLACK
6
CONTINUOUS
10
6.12345
20
-4.1813
11
6.12703
21
-4.18698
0
LINE
8
BLACK
6
CONTINUOUS
10
6.12703
20
-4.18698
11
6.12925
21
-4.19332
0
LINE
8
BLACK
6
CONTINUOUS
10
6.12925
20
-4.19332
11
6.13
21
-4.2
0
LINE
8
BLACK
6
CONTINUOUS
10
6.13
20
-4.2
11
6.12925
21
-4.20668
0
LINE
8
BLACK
6
CONTINUOUS
10
6.12925
20
-4.20668
11
6.12703
21
-4.21302
0
LINE
8
BLACK
6
CONTINUOUS
10
6.12703
20
-4.21302
11
6.12345
21
-4.2187
0
LINE
8
BLACK
6
CONTINUOUS
10
6.12345
20
-4.2187
11
6.1187
21
-4.22345
0
LINE
8
BLACK
6
CONTINUOUS
10
6.1187
20
-4.22345
11
6.11302
21
-4.22703
0
LINE
8
BLACK
6
CONTINUOUS
10
6.11302
20
-4.22703
11
6.10668
21
-4.22925
0
LINE
8
BLACK
6
CONTINUOUS
10
6.10668
20
-4.22925
11
6.1
21
-4.23
0
LINE
8
BLACK
6
CONTINUOUS
10
6.1
20
-4.23
11
6.09332
21
-4.22925
0
LINE
8
BLACK
6
CONTINUOUS
10
6.09332
20
-4.22925
11
6.08698
21
-4.22703
0
LINE
8
BLACK
6
CONTINUOUS
10
6.08698
20
-4.22703
11
6.0813
21
-4.22345
0
LINE
8
BLACK
6
CONTINUOUS
10
6.0813
20
-4.22345
11
6.07655
21
-4.2187
0
LINE
8
BLACK
6
CONTINUOUS
10
6.07655
20
-4.2187
11
6.07297
21
-4.21302
0
LINE
8
BLACK
6
CONTINUOUS
10
6.07297
20
-4.21302
11
6.07075
21
-4.20668
0
LINE
8
BLACK
6
CONTINUOUS
10
6.07075
20
-4.20668
11
6.07
21
-4.2
0
LINE
8
BLACK
6
CONTINUOUS
10
6.07
20
-4.2
11
6.07075
21
-4.19332
0
LINE
8
BLACK
6
CONTINUOUS
10
6.07075
20
-4.19332
11
6.07297
21
-4.18698
0
LINE
8
BLACK
6
CONTINUOUS
10
6.07297
20
-4.18698
11
6.07655
21
-4.1813
0
LINE
8
BLACK
6
CONTINUOUS
10
6.07655
20
-4.1813
11
6.0813
21
-4.17655
0
LINE
8
BLACK
6
CONTINUOUS
10
6.0813
20
-4.17655
11
6.08698
21
-4.17297
0
LINE
8
BLACK
6
CONTINUOUS
10
6.08698
20
-4.17297
11
6.09332
21
-4.17075
0
LINE
8
BLACK
6
CONTINUOUS
10
6.09332
20
-4.17075
11
6.1
21
-4.17
0
LINE
8
BLACK
6
CONTINUOUS
10
6.1
20
-4.17
11
6.10668
21
-4.17075
0
LINE
8
BLACK
6
CONTINUOUS
10
5.90668
20
-4.07075
11
5.91302
21
-4.07297
0
LINE
8
BLACK
6
CONTINUOUS
10
5.91302
20
-4.07297
11
5.9187
21
-4.07655
0
LINE
8
BLACK
6
CONTINUOUS
10
5.9187
20
-4.07655
11
5.92345
21
-4.0813
0
LINE
8
BLACK
6
CONTINUOUS
10
5.92345
20
-4.0813
11
5.92703
21
-4.08698
0
LINE
8
BLACK
6
CONTINUOUS
10
5.92703
20
-4.08698
11
5.92925
21
-4.09332
0
LINE
8
BLACK
6
CONTINUOUS
10
5.92925
20
-4.09332
11
5.93
21
-4.1
0
LINE
8
BLACK
6
CONTINUOUS
10
5.93
20
-4.1
11
5.92925
21
-4.10668
0
LINE
8
BLACK
6
CONTINUOUS
10
5.92925
20
-4.10668
11
5.92703
21
-4.11302
0
LINE
8
BLACK
6
CONTINUOUS
10
5.92703
20
-4.11302
11
5.92345
21
-4.1187
0
LINE
8
BLACK
6
CONTINUOUS
10
5.92345
20
-4.1187
11
5.9187
21
-4.12345
0
LINE
8
BLACK
6
CONTINUOUS
10
5.9187
20
-4.12345
11
5.91302
21
-4.12703
0
LINE
8
BLACK
6
CONTINUOUS
10
5.91302
20
-4.12703
11
5.90668
21
-4.12925
0
LINE
8
BLACK
6
CONTINUOUS
10
5.90668
20
-4.12925
11
5.9
21
-4.13
0
LINE
8
BLACK
6
CONTINUOUS
10
5.9
20
-4.13
11
5.89332
21
-4.12925
0
LINE
8
BLACK
6
CONTINUOUS
10
5.89332
20
-4.12925
11
5.88698
21
-4.12703
0
LINE
8
BLACK
6
CONTINUOUS
10
5.88698
20
-4.12703
11
5.8813
21
-4.12345
0
LINE
8
BLACK
6
CONTINUOUS
10
5.8813
20
-4.12345
11
5.87655
21
-4.1187
0
LINE
8
BLACK
6
CONTINUOUS
10
5.87655
20
-4.1187
11
5.87297
21
-4.11302
0
LINE
8
BLACK
6
CONTINUOUS
10
5.87297
20
-4.11302
11
5.87075
21
-4.10668
0
LINE
8
BLACK
6
CONTINUOUS
10
5.87075
20
-4.10668
11
5.87
21
-4.1
0
LINE
8
BLACK
6
CONTINUOUS
10
5.87
20
-4.1
11
5.87075
21
-4.09332
0
LINE
8
BLACK
6
CONTINUOUS
10
5.87075
20
-4.09332
11
5.87297
21
-4.08698
0
LINE
8
BLACK
6
CONTINUOUS
10
5.87297
20
-4.08698
11
5.87655
21
-4.0813
0
LINE
8
BLACK
6
CONTINUOUS
10
5.87655
20
-4.0813
11
5.8813
21
-4.07655
0
LINE
8
BLACK
6
CONTINUOUS
10
5.8813
20
-4.07655
11
5.88698
21
-4.07297
0
LINE
8
BLACK
6
CONTINUOUS
10
5.88698
20
-4.07297
11
5.89332
21
-4.07075
0
LINE
8
BLACK
6
CONTINUOUS
10
5.89332
20
-4.07075
11
5.9
21
-4.07
0
LINE
8
BLACK
6
CONTINUOUS
10
5.9
20
-4.07
11
5.90668
21
-4.07075
0
LINE
8
BLACK
6
CONTINUOUS
10
6.00668
20
-4.07075
11
6.01302
21
-4.07297
0
LINE
8
BLACK
6
CONTINUOUS
10
6.01302
20
-4.07297
11
6.0187
21
-4.07655
0
LINE
8
BLACK
6
CONTINUOUS
10
6.0187
20
-4.07655
11
6.02345
21
-4.0813
0
LINE
8
BLACK
6
CONTINUOUS
10
6.02345
20
-4.0813
11
6.02703
21
-4.08698
0
LINE
8
BLACK
6
CONTINUOUS
10
6.02703
20
-4.08698
11
6.02925
21
-4.09332
0
LINE
8
BLACK
6
CONTINUOUS
10
6.02925
20
-4.09332
11
6.03
21
-4.1
0
LINE
8
BLACK
6
CONTINUOUS
10
6.03
20
-4.1
11
6.02925
21
-4.10668
0
LINE
8
BLACK
6
CONTINUOUS
10
6.02925
20
-4.10668
11
6.02703
21
-4.11302
0
LINE
8
BLACK
6
CONTINUOUS
10
6.02703
20
-4.11302
11
6.02345
21
-4.1187
0
LINE
8
BLACK
6
CONTINUOUS
10
6.02345
20
-4.1187
11
6.0187
21
-4.12345
0
LINE
8
BLACK
6
CONTINUOUS
10
6.0187
20
-4.12345
11
6.01302
21
-4.12703
0
LINE
8
BLACK
6
CONTINUOUS
10
6.01302
20
-4.12703
11
6.00668
21
-4.12925
0
LINE
8
BLACK
6
CONTINUOUS
10
6.00668
20
-4.12925
11
6
21
-4.13
0
LINE
8
BLACK
6
CONTINUOUS
10
6
20
-4.13
11
5.99332
21
-4.12925
0
LINE
8
BLACK
6
CONTINUOUS
10
5.99332
20
-4.12925
11
5.98698
21
-4.12703
0
LINE
8
BLACK
6
CONTINUOUS
10
5.98698
20
-4.12703
11
5.9813
21
-4.12345
0
LINE
8
BLACK
6
CONTINUOUS
10
5.9813
20
-4.12345
11
5.97655
21
-4.1187
0
LINE
8
BLACK
6
CONTINUOUS
10
5.97655
20
-4.1187
11
5.97297
21
-4.11302
0
LINE
8
BLACK
6
CONTINUOUS
10
5.97297
20
-4.11302
11
5.97075
21
-4.10668
0
LINE
8
BLACK
6
CONTINUOUS
10
5.97075
20
-4.10668
11
5.97
21
-4.1
0
LINE
8
BLACK
6
CONTINUOUS
10
5.97
20
-4.1
11
5.97075
21
-4.09332
0
LINE
8
BLACK
6
CONTINUOUS
10
5.97075
20
-4.09332
11
5.97297
21
-4.08698
0
LINE
8
BLACK
6
CONTINUOUS
10
5.97297
20
-4.08698
11
5.97655
21
-4.0813
0
LINE
8
BLACK
6
CONTINUOUS
10
5.97655
20
-4.0813
11
5.9813
21
-4.07655
0
LINE
8
BLACK
6
CONTINUOUS
10
5.9813
20
-4.07655
11
5.98698
21
-4.07297
0
LINE
8
BLACK
6
CONTINUOUS
10
5.98698
20
-4.07297
11
5.99332
21
-4.07075
0
LINE
8
BLACK
6
CONTINUOUS
10
5.99332
20
-4.07075
11
6
21
-4.07
0
LINE
8
BLACK
6
CONTINUOUS
10
6
20
-4.07
11
6.00668
21
-4.07075
0
LINE
8
BLACK
6
CONTINUOUS
10
6.10668
20
-4.07075
11
6.11302
21
-4.07297
0
LINE
8
BLACK
6
CONTINUOUS
10
6.11302
20
-4.07297
11
6.1187
21
-4.07655
0
LINE
8
BLACK
6
CONTINUOUS
10
6.1187
20
-4.07655
11
6.12345
21
-4.0813
0
LINE
8
BLACK
6
CONTINUOUS
10
6.12345
20
-4.0813
11
6.12703
21
-4.08698
0
LINE
8
BLACK
6
CONTINUOUS
10
6.12703
20
-4.08698
11
6.12925
21
-4.09332
0
LINE
8
BLACK
6
CONTINUOUS
10
6.12925
20
-4.09332
11
6.13
21
-4.1
0
LINE
8
BLACK
6
CONTINUOUS
10
6.13
20
-4.1
11
6.12925
21
-4.10668
0
LINE
8
BLACK
6
CONTINUOUS
10
6.12925
20
-4.10668
11
6.12703
21
-4.11302
0
LINE
8
BLACK
6
CONTINUOUS
10
6.12703
20
-4.11302
11
6.12345
21
-4.1187
0
LINE
8
BLACK
6
CONTINUOUS
10
6.12345
20
-4.1187
11
6.1187
21
-4.12345
0
LINE
8
BLACK
6
CONTINUOUS
10
6.1187
20
-4.12345
11
6.11302
21
-4.12703
0
LINE
8
BLACK
6
CONTINUOUS
10
6.11302
20
-4.12703
11
6.10668
21
-4.12925
0
LINE
8
BLACK
6
CONTINUOUS
10
6.10668
20
-4.12925
11
6.1
21
-4.13
0
LINE
8
BLACK
6
CONTINUOUS
10
6.1
20
-4.13
11
6.09332
21
-4.12925
0
LINE
8
BLACK
6
CONTINUOUS
10
6.09332
20
-4.12925
11
6.08698
21
-4.12703
0
LINE
8
BLACK
6
CONTINUOUS
10
6.08698
20
-4.12703
11
6.0813
21
-4.12345
0
LINE
8
BLACK
6
CONTINUOUS
10
6.0813
20
-4.12345
11
6.07655
21
-4.1187
0
LINE
8
BLACK
6
CONTINUOUS
10
6.07655
20
-4.1187
11
6.07297
21
-4.11302
0
LINE
8
BLACK
6
CONTINUOUS
10
6.07297
20
-4.11302
11
6.07075
21
-4.10668
0
LINE
8
BLACK
6
CONTINUOUS
10
6.07075
20
-4.10668
11
6.07
21
-4.1
0
LINE
8
BLACK
6
CONTINUOUS
10
6.07
20
-4.1
11
6.07075
21
-4.09332
0
LINE
8
BLACK
6
CONTINUOUS
10
6.07075
20
-4.09332
11
6.07297
21
-4.08698
0
LINE
8
BLACK
6
CONTINUOUS
10
6.07297
20
-4.08698
11
6.07655
21
-4.0813
0
LINE
8
BLACK
6
CONTINUOUS
10
6.07655
20
-4.0813
11
6.0813
21
-4.07655
0
LINE
8
BLACK
6
CONTINUOUS
10
6.0813
20
-4.07655
11
6.08698
21
-4.07297
0
LINE
8
BLACK
6
CONTINUOUS
10
6.08698
20
-4.07297
11
6.09332
21
-4.07075
0
LINE
8
BLACK
6
CONTINUOUS
10
6.09332
20
-4.07075
11
6.1
21
-4.07
0
LINE
8
BLACK
6
CONTINUOUS
10
6.1
20
-4.07
11
6.10668
21
-4.07075
0
LINE
8
BLACK
6
CONTINUOUS
10
5.43881
20
-3.97319
11
5.442
21
-3.97532
0
LINE
8
BLACK
6
CONTINUOUS
10
5.442
20
-3.97532
11
5.44413
21
-3.97852
0
LINE
8
BLACK
6
CONTINUOUS
10
5.44413
20
-3.97852
11
5.44488
21
-3.98228
0
LINE
8
BLACK
6
CONTINUOUS
10
5.44488
20
-3.98228
11
5.44488
21
-4.01772
0
LINE
8
BLACK
6
CONTINUOUS
10
5.44488
20
-4.01772
11
5.44413
21
-4.02148
0
LINE
8
BLACK
6
CONTINUOUS
10
5.44413
20
-4.02148
11
5.442
21
-4.02468
0
LINE
8
BLACK
6
CONTINUOUS
10
5.442
20
-4.02468
11
5.43881
21
-4.02681
0
LINE
8
BLACK
6
CONTINUOUS
10
5.43881
20
-4.02681
11
5.43504
21
-4.02756
0
LINE
8
BLACK
6
CONTINUOUS
10
5.43504
20
-4.02756
11
5.40748
21
-4.02756
0
LINE
8
BLACK
6
CONTINUOUS
10
5.40748
20
-4.02756
11
5.40371
21
-4.02681
0
LINE
8
BLACK
6
CONTINUOUS
10
5.40371
20
-4.02681
11
5.40052
21
-4.02468
0
LINE
8
BLACK
6
CONTINUOUS
10
5.40052
20
-4.02468
11
5.39839
21
-4.02148
0
LINE
8
BLACK
6
CONTINUOUS
10
5.39839
20
-4.02148
11
5.39764
21
-4.01772
0
LINE
8
BLACK
6
CONTINUOUS
10
5.39764
20
-4.01772
11
5.39764
21
-3.98228
0
LINE
8
BLACK
6
CONTINUOUS
10
5.39764
20
-3.98228
11
5.39839
21
-3.97852
0
LINE
8
BLACK
6
CONTINUOUS
10
5.39839
20
-3.97852
11
5.40052
21
-3.97532
0
LINE
8
BLACK
6
CONTINUOUS
10
5.40052
20
-3.97532
11
5.40371
21
-3.97319
0
LINE
8
BLACK
6
CONTINUOUS
10
5.40371
20
-3.97319
11
5.40748
21
-3.97244
0
LINE
8
BLACK
6
CONTINUOUS
10
5.40748
20
-3.97244
11
5.43504
21
-3.97244
0
LINE
8
BLACK
6
CONTINUOUS
10
5.43504
20
-3.97244
11
5.43881
21
-3.97319
0
LINE
8
BLACK
6
CONTINUOUS
10
5.51755
20
-3.97319
11
5.52074
21
-3.97532
0
LINE
8
BLACK
6
CONTINUOUS
10
5.52074
20
-3.97532
11
5.52287
21
-3.97852
0
LINE
8
BLACK
6
CONTINUOUS
10
5.52287
20
-3.97852
11
5.52362
21
-3.98228
0
LINE
8
BLACK
6
CONTINUOUS
10
5.52362
20
-3.98228
11
5.52362
21
-4.01772
0
LINE
8
BLACK
6
CONTINUOUS
10
5.52362
20
-4.01772
11
5.52287
21
-4.02148
0
LINE
8
BLACK
6
CONTINUOUS
10
5.52287
20
-4.02148
11
5.52074
21
-4.02468
0
LINE
8
BLACK
6
CONTINUOUS
10
5.52074
20
-4.02468
11
5.51755
21
-4.02681
0
LINE
8
BLACK
6
CONTINUOUS
10
5.51755
20
-4.02681
11
5.51378
21
-4.02756
0
LINE
8
BLACK
6
CONTINUOUS
10
5.51378
20
-4.02756
11
5.48622
21
-4.02756
0
LINE
8
BLACK
6
CONTINUOUS
10
5.48622
20
-4.02756
11
5.48245
21
-4.02681
0
LINE
8
BLACK
6
CONTINUOUS
10
5.48245
20
-4.02681
11
5.47926
21
-4.02468
0
LINE
8
BLACK
6
CONTINUOUS
10
5.47926
20
-4.02468
11
5.47713
21
-4.02148
0
LINE
8
BLACK
6
CONTINUOUS
10
5.47713
20
-4.02148
11
5.47638
21
-4.01772
0
LINE
8
BLACK
6
CONTINUOUS
10
5.47638
20
-4.01772
11
5.47638
21
-3.98228
0
LINE
8
BLACK
6
CONTINUOUS
10
5.47638
20
-3.98228
11
5.47713
21
-3.97852
0
LINE
8
BLACK
6
CONTINUOUS
10
5.47713
20
-3.97852
11
5.47926
21
-3.97532
0
LINE
8
BLACK
6
CONTINUOUS
10
5.47926
20
-3.97532
11
5.48245
21
-3.97319
0
LINE
8
BLACK
6
CONTINUOUS
10
5.48245
20
-3.97319
11
5.48622
21
-3.97244
0
LINE
8
BLACK
6
CONTINUOUS
10
5.48622
20
-3.97244
11
5.51378
21
-3.97244
0
LINE
8
BLACK
6
CONTINUOUS
10
5.51378
20
-3.97244
11
5.51755
21
-3.97319
0
LINE
8
BLACK
6
CONTINUOUS
10
6.51755
20
-3.97319
11
6.52074
21
-3.97532
0
LINE
8
BLACK
6
CONTINUOUS
10
6.52074
20
-3.97532
11
6.52287
21
-3.97852
0
LINE
8
BLACK
6
CONTINUOUS
10
6.52287
20
-3.97852
11
6.52362
21
-3.98228
0
LINE
8
BLACK
6
CONTINUOUS
10
6.52362
20
-3.98228
11
6.52362
21
-4.01772
0
LINE
8
BLACK
6
CONTINUOUS
10
6.52362
20
-4.01772
11
6.52287
21
-4.02148
0
LINE
8
BLACK
6
CONTINUOUS
10
6.52287
20
-4.02148
11
6.52074
21
-4.02468
0
LINE
8
BLACK
6
CONTINUOUS
10
6.52074
20
-4.02468
11
6.51755
21
-4.02681
0
LINE
8
BLACK
6
CONTINUOUS
10
6.51755
20
-4.02681
11
6.51378
21
-4.02756
0
LINE
8
BLACK
6
CONTINUOUS
10
6.51378
20
-4.02756
11
6.48622
21
-4.02756
0
LINE
8
BLACK
6
CONTINUOUS
10
6.48622
20
-4.02756
11
6.48245
21
-4.02681
0
LINE
8
BLACK
6
CONTINUOUS
10
6.48245
20
-4.02681
11
6.47926
21
-4.02468
0
LINE
8
BLACK
6
CONTINUOUS
10
6.47926
20
-4.02468
11
6.47713
21
-4.02148
0
LINE
8
BLACK
6
CONTINUOUS
10
6.47713
20
-4.02148
11
6.47638
21
-4.01772
0
LINE
8
BLACK
6
CONTINUOUS
10
6.47638
20
-4.01772
11
6.47638
21
-3.98228
0
LINE
8
BLACK
6
CONTINUOUS
10
6.47638
20
-3.98228
11
6.47713
21
-3.97852
0
LINE
8
BLACK
6
CONTINUOUS
10
6.47713
20
-3.97852
11
6.47926
21
-3.97532
0
LINE
8
BLACK
6
CONTINUOUS
10
6.47926
20
-3.97532
11
6.48245
21
-3.97319
0
LINE
8
BLACK
6
CONTINUOUS
10
6.48245
20
-3.97319
11
6.48622
21
-3.97244
0
LINE
8
BLACK
6
CONTINUOUS
10
6.48622
20
-3.97244
11
6.51378
21
-3.97244
0
LINE
8
BLACK
6
CONTINUOUS
10
6.51378
20
-3.97244
11
6.51755
21
-3.97319
0
LINE
8
BLACK
6
CONTINUOUS
10
6.59629
20
-3.97319
11
6.59948
21
-3.97532
0
LINE
8
BLACK
6
CONTINUOUS
10
6.59948
20
-3.97532
11
6.60161
21
-3.97852
0
LINE
8
BLACK
6
CONTINUOUS
10
6.60161
20
-3.97852
11
6.60236
21
-3.98228
0
LINE
8
BLACK
6
CONTINUOUS
10
6.60236
20
-3.98228
11
6.60236
21
-4.01772
0
LINE
8
BLACK
6
CONTINUOUS
10
6.60236
20
-4.01772
11
6.60161
21
-4.02148
0
LINE
8
BLACK
6
CONTINUOUS
10
6.60161
20
-4.02148
11
6.59948
21
-4.02468
0
LINE
8
BLACK
6
CONTINUOUS
10
6.59948
20
-4.02468
11
6.59629
21
-4.02681
0
LINE
8
BLACK
6
CONTINUOUS
10
6.59629
20
-4.02681
11
6.59252
21
-4.02756
0
LINE
8
BLACK
6
CONTINUOUS
10
6.59252
20
-4.02756
11
6.56496
21
-4.02756
0
LINE
8
BLACK
6
CONTINUOUS
10
6.56496
20
-4.02756
11
6.56119
21
-4.02681
0
LINE
8
BLACK
6
CONTINUOUS
10
6.56119
20
-4.02681
11
6.558
21
-4.02468
0
LINE
8
BLACK
6
CONTINUOUS
10
6.558
20
-4.02468
11
6.55587
21
-4.02148
0
LINE
8
BLACK
6
CONTINUOUS
10
6.55587
20
-4.02148
11
6.55512
21
-4.01772
0
LINE
8
BLACK
6
CONTINUOUS
10
6.55512
20
-4.01772
11
6.55512
21
-3.98228
0
LINE
8
BLACK
6
CONTINUOUS
10
6.55512
20
-3.98228
11
6.55587
21
-3.97852
0
LINE
8
BLACK
6
CONTINUOUS
10
6.55587
20
-3.97852
11
6.558
21
-3.97532
0
LINE
8
BLACK
6
CONTINUOUS
10
6.558
20
-3.97532
11
6.56119
21
-3.97319
0
LINE
8
BLACK
6
CONTINUOUS
10
6.56119
20
-3.97319
11
6.56496
21
-3.97244
0
LINE
8
BLACK
6
CONTINUOUS
10
6.56496
20
-3.97244
11
6.59252
21
-3.97244
0
LINE
8
BLACK
6
CONTINUOUS
10
6.59252
20
-3.97244
11
6.59629
21
-3.97319
0
LINE
8
BLACK
6
CONTINUOUS
10
5.74921
20
-3.94921
11
5.65079
21
-3.94921
0
LINE
8
BLACK
6
CONTINUOUS
10
5.65079
20
-3.94921
11
5.65079
21
-3.85079
0
LINE
8
BLACK
6
CONTINUOUS
10
5.65079
20
-3.85079
11
5.74921
21
-3.85079
0
LINE
8
BLACK
6
CONTINUOUS
10
5.74921
20
-3.85079
11
5.74921
21
-3.94921
0
LINE
8
BLACK
6
CONTINUOUS
10
6.34921
20
-3.94921
11
6.25079
21
-3.94921
0
LINE
8
BLACK
6
CONTINUOUS
10
6.25079
20
-3.94921
11
6.25079
21
-3.85079
0
LINE
8
BLACK
6
CONTINUOUS
10
6.25079
20
-3.85079
11
6.34921
21
-3.85079
0
LINE
8
BLACK
6
CONTINUOUS
10
6.34921
20
-3.85079
11
6.34921
21
-3.94921
0
LINE
8
BLACK
6
CONTINUOUS
10
6.04921
20
-3.79921
11
5.95079
21
-3.79921
0
LINE
8
BLACK
6
CONTINUOUS
10
5.95079
20
-3.79921
11
5.95079
21
-3.70079
0
LINE
8
BLACK
6
CONTINUOUS
10
5.95079
20
-3.70079
11
6.04921
21
-3.70079
0
LINE
8
BLACK
6
CONTINUOUS
10
6.04921
20
-3.70079
11
6.04921
21
-3.79921
0
LINE
8
BLACK
6
CONTINUOUS
10
5.82148
20
-3.67713
11
5.82468
21
-3.67926
0
LINE
8
BLACK
6
CONTINUOUS
10
5.82468
20
-3.67926
11
5.82681
21
-3.68245
0
LINE
8
BLACK
6
CONTINUOUS
10
5.82681
20
-3.68245
11
5.82756
21
-3.68622
0
LINE
8
BLACK
6
CONTINUOUS
10
5.82756
20
-3.68622
11
5.82756
21
-3.71378
0
LINE
8
BLACK
6
CONTINUOUS
10
5.82756
20
-3.71378
11
5.82681
21
-3.71755
0
LINE
8
BLACK
6
CONTINUOUS
10
5.82681
20
-3.71755
11
5.82468
21
-3.72074
0
LINE
8
BLACK
6
CONTINUOUS
10
5.82468
20
-3.72074
11
5.82148
21
-3.72287
0
LINE
8
BLACK
6
CONTINUOUS
10
5.82148
20
-3.72287
11
5.81772
21
-3.72362
0
LINE
8
BLACK
6
CONTINUOUS
10
5.81772
20
-3.72362
11
5.78228
21
-3.72362
0
LINE
8
BLACK
6
CONTINUOUS
10
5.78228
20
-3.72362
11
5.77852
21
-3.72287
0
LINE
8
BLACK
6
CONTINUOUS
10
5.77852
20
-3.72287
11
5.77532
21
-3.72074
0
LINE
8
BLACK
6
CONTINUOUS
10
5.77532
20
-3.72074
11
5.77319
21
-3.71755
0
LINE
8
BLACK
6
CONTINUOUS
10
5.77319
20
-3.71755
11
5.77244
21
-3.71378
0
LINE
8
BLACK
6
CONTINUOUS
10
5.77244
20
-3.71378
11
5.77244
21
-3.68622
0
LINE
8
BLACK
6
CONTINUOUS
10
5.77244
20
-3.68622
11
5.77319
21
-3.68245
0
LINE
8
BLACK
6
CONTINUOUS
10
5.77319
20
-3.68245
11
5.77532
21
-3.67926
0
LINE
8
BLACK
6
CONTINUOUS
10
5.77532
20
-3.67926
11
5.77852
21
-3.67713
0
LINE
8
BLACK
6
CONTINUOUS
10
5.77852
20
-3.67713
11
5.78228
21
-3.67638
0
LINE
8
BLACK
6
CONTINUOUS
10
5.78228
20
-3.67638
11
5.81772
21
-3.67638
0
LINE
8
BLACK
6
CONTINUOUS
10
5.81772
20
-3.67638
11
5.82148
21
-3.67713
0
LINE
8
BLACK
6
CONTINUOUS
10
6.22148
20
-3.67713
11
6.22468
21
-3.67926
0
LINE
8
BLACK
6
CONTINUOUS
10
6.22468
20
-3.67926
11
6.22681
21
-3.68245
0
LINE
8
BLACK
6
CONTINUOUS
10
6.22681
20
-3.68245
11
6.22756
21
-3.68622
0
LINE
8
BLACK
6
CONTINUOUS
10
6.22756
20
-3.68622
11
6.22756
21
-3.71378
0
LINE
8
BLACK
6
CONTINUOUS
10
6.22756
20
-3.71378
11
6.22681
21
-3.71755
0
LINE
8
BLACK
6
CONTINUOUS
10
6.22681
20
-3.71755
11
6.22468
21
-3.72074
0
LINE
8
BLACK
6
CONTINUOUS
10
6.22468
20
-3.72074
11
6.22148
21
-3.72287
0
LINE
8
BLACK
6
CONTINUOUS
10
6.22148
20
-3.72287
11
6.21772
21
-3.72362
0
LINE
8
BLACK
6
CONTINUOUS
10
6.21772
20
-3.72362
11
6.18228
21
-3.72362
0
LINE
8
BLACK
6
CONTINUOUS
10
6.18228
20
-3.72362
11
6.17852
21
-3.72287
0
LINE
8
BLACK
6
CONTINUOUS
10
6.17852
20
-3.72287
11
6.17532
21
-3.72074
0
LINE
8
BLACK
6
CONTINUOUS
10
6.17532
20
-3.72074
11
6.17319
21
-3.71755
0
LINE
8
BLACK
6
CONTINUOUS
10
6.17319
20
-3.71755
11
6.17244
21
-3.71378
0
LINE
8
BLACK
6
CONTINUOUS
10
6.17244
20
-3.71378
11
6.17244
21
-3.68622
0
LINE
8
BLACK
6
CONTINUOUS
10
6.17244
20
-3.68622
11
6.17319
21
-3.68245
0
LINE
8
BLACK
6
CONTINUOUS
10
6.17319
20
-3.68245
11
6.17532
21
-3.67926
0
LINE
8
BLACK
6
CONTINUOUS
10
6.17532
20
-3.67926
11
6.17852
21
-3.67713
0
LINE
8
BLACK
6
CONTINUOUS
10
6.17852
20
-3.67713
11
6.18228
21
-3.67638
0
LINE
8
BLACK
6
CONTINUOUS
10
6.18228
20
-3.67638
11
6.21772
21
-3.67638
0
LINE
8
BLACK
6
CONTINUOUS
10
6.21772
20
-3.67638
11
6.22148
21
-3.67713
0
LINE
8
BLACK
6
CONTINUOUS
10
5.45985
20
-3.58778
11
5.46947
21
-3.59009
0
LINE
8
BLACK
6
CONTINUOUS
10
5.46947
20
-3.59009
11
5.4786
21
-3.59387
0
LINE
8
BLACK
6
CONTINUOUS
10
5.4786
20
-3.59387
11
5.48703
21
-3.59904
0
LINE
8
BLACK
6
CONTINUOUS
10
5.48703
20
-3.59904
11
5.49454
21
-3.60546
0
LINE
8
BLACK
6
CONTINUOUS
10
5.49454
20
-3.60546
11
5.50096
21
-3.61297
0
LINE
8
BLACK
6
CONTINUOUS
10
5.50096
20
-3.61297
11
5.50613
21
-3.6214
0
LINE
8
BLACK
6
CONTINUOUS
10
5.50613
20
-3.6214
11
5.50991
21
-3.63053
0
LINE
8
BLACK
6
CONTINUOUS
10
5.50991
20
-3.63053
11
5.51222
21
-3.64015
0
LINE
8
BLACK
6
CONTINUOUS
10
5.51222
20
-3.64015
11
5.51299
21
-3.65
0
LINE
8
BLACK
6
CONTINUOUS
10
5.51299
20
-3.65
11
5.51222
21
-3.65985
0
LINE
8
BLACK
6
CONTINUOUS
10
5.51222
20
-3.65985
11
5.50991
21
-3.66947
0
LINE
8
BLACK
6
CONTINUOUS
10
5.50991
20
-3.66947
11
5.50613
21
-3.6786
0
LINE
8
BLACK
6
CONTINUOUS
10
5.50613
20
-3.6786
11
5.50096
21
-3.68703
0
LINE
8
BLACK
6
CONTINUOUS
10
5.50096
20
-3.68703
11
5.49454
21
-3.69454
0
LINE
8
BLACK
6
CONTINUOUS
10
5.49454
20
-3.69454
11
5.48703
21
-3.70096
0
LINE
8
BLACK
6
CONTINUOUS
10
5.48703
20
-3.70096
11
5.4786
21
-3.70613
0
LINE
8
BLACK
6
CONTINUOUS
10
5.4786
20
-3.70613
11
5.46947
21
-3.70991
0
LINE
8
BLACK
6
CONTINUOUS
10
5.46947
20
-3.70991
11
5.45985
21
-3.71222
0
LINE
8
BLACK
6
CONTINUOUS
10
5.45985
20
-3.71222
11
5.45
21
-3.71299
0
LINE
8
BLACK
6
CONTINUOUS
10
5.45
20
-3.71299
11
5.44015
21
-3.71222
0
LINE
8
BLACK
6
CONTINUOUS
10
5.44015
20
-3.71222
11
5.43053
21
-3.70991
0
LINE
8
BLACK
6
CONTINUOUS
10
5.43053
20
-3.70991
11
5.4214
21
-3.70613
0
LINE
8
BLACK
6
CONTINUOUS
10
5.4214
20
-3.70613
11
5.41297
21
-3.70096
0
LINE
8
BLACK
6
CONTINUOUS
10
5.41297
20
-3.70096
11
5.40546
21
-3.69454
0
LINE
8
BLACK
6
CONTINUOUS
10
5.40546
20
-3.69454
11
5.39904
21
-3.68703
0
LINE
8
BLACK
6
CONTINUOUS
10
5.39904
20
-3.68703
11
5.39387
21
-3.6786
0
LINE
8
BLACK
6
CONTINUOUS
10
5.39387
20
-3.6786
11
5.39009
21
-3.66947
0
LINE
8
BLACK
6
CONTINUOUS
10
5.39009
20
-3.66947
11
5.38778
21
-3.65985
0
LINE
8
BLACK
6
CONTINUOUS
10
5.38778
20
-3.65985
11
5.38701
21
-3.65
0
LINE
8
BLACK
6
CONTINUOUS
10
5.38701
20
-3.65
11
5.38778
21
-3.64015
0
LINE
8
BLACK
6
CONTINUOUS
10
5.38778
20
-3.64015
11
5.39009
21
-3.63053
0
LINE
8
BLACK
6
CONTINUOUS
10
5.39009
20
-3.63053
11
5.39387
21
-3.6214
0
LINE
8
BLACK
6
CONTINUOUS
10
5.39387
20
-3.6214
11
5.39904
21
-3.61297
0
LINE
8
BLACK
6
CONTINUOUS
10
5.39904
20
-3.61297
11
5.40546
21
-3.60546
0
LINE
8
BLACK
6
CONTINUOUS
10
5.40546
20
-3.60546
11
5.41297
21
-3.59904
0
LINE
8
BLACK
6
CONTINUOUS
10
5.41297
20
-3.59904
11
5.4214
21
-3.59387
0
LINE
8
BLACK
6
CONTINUOUS
10
5.4214
20
-3.59387
11
5.43053
21
-3.59009
0
LINE
8
BLACK
6
CONTINUOUS
10
5.43053
20
-3.59009
11
5.44015
21
-3.58778
0
LINE
8
BLACK
6
CONTINUOUS
10
5.44015
20
-3.58778
11
5.45
21
-3.58701
0
LINE
8
BLACK
6
CONTINUOUS
10
5.45
20
-3.58701
11
5.45985
21
-3.58778
0
LINE
8
BLACK
6
CONTINUOUS
10
6.55985
20
-3.58778
11
6.56947
21
-3.59009
0
LINE
8
BLACK
6
CONTINUOUS
10
6.56947
20
-3.59009
11
6.5786
21
-3.59387
0
LINE
8
BLACK
6
CONTINUOUS
10
6.5786
20
-3.59387
11
6.58703
21
-3.59904
0
LINE
8
BLACK
6
CONTINUOUS
10
6.58703
20
-3.59904
11
6.59454
21
-3.60546
0
LINE
8
BLACK
6
CONTINUOUS
10
6.59454
20
-3.60546
11
6.60096
21
-3.61297
0
LINE
8
BLACK
6
CONTINUOUS
10
6.60096
20
-3.61297
11
6.60613
21
-3.6214
0
LINE
8
BLACK
6
CONTINUOUS
10
6.60613
20
-3.6214
11
6.60991
21
-3.63053
0
LINE
8
BLACK
6
CONTINUOUS
10
6.60991
20
-3.63053
11
6.61222
21
-3.64015
0
LINE
8
BLACK
6
CONTINUOUS
10
6.61222
20
-3.64015
11
6.61299
21
-3.65
0
LINE
8
BLACK
6
CONTINUOUS
10
6.61299
20
-3.65
11
6.61222
21
-3.65985
0
LINE
8
BLACK
6
CONTINUOUS
10
6.61222
20
-3.65985
11
6.60991
21
-3.66947
0
LINE
8
BLACK
6
CONTINUOUS
10
6.60991
20
-3.66947
11
6.60613
21
-3.6786
0
LINE
8
BLACK
6
CONTINUOUS
10
6.60613
20
-3.6786
11
6.60096
21
-3.68703
0
LINE
8
BLACK
6
CONTINUOUS
10
6.60096
20
-3.68703
11
6.59454
21
-3.69454
0
LINE
8
BLACK
6
CONTINUOUS
10
6.59454
20
-3.69454
11
6.58703
21
-3.70096
0
LINE
8
BLACK
6
CONTINUOUS
10
6.58703
20
-3.70096
11
6.5786
21
-3.70613
0
LINE
8
BLACK
6
CONTINUOUS
10
6.5786
20
-3.70613
11
6.56947
21
-3.70991
0
LINE
8
BLACK
6
CONTINUOUS
10
6.56947
20
-3.70991
11
6.55985
21
-3.71222
0
LINE
8
BLACK
6
CONTINUOUS
10
6.55985
20
-3.71222
11
6.55
21
-3.71299
0
LINE
8
BLACK
6
CONTINUOUS
10
6.55
20
-3.71299
11
6.54015
21
-3.71222
0
LINE
8
BLACK
6
CONTINUOUS
10
6.54015
20
-3.71222
11
6.53053
21
-3.70991
0
LINE
8
BLACK
6
CONTINUOUS
10
6.53053
20
-3.70991
11
6.5214
21
-3.70613
0
LINE
8
BLACK
6
CONTINUOUS
10
6.5214
20
-3.70613
11
6.51297
21
-3.70096
0
LINE
8
BLACK
6
CONTINUOUS
10
6.51297
20
-3.70096
11
6.50546
21
-3.69454
0
LINE
8
BLACK
6
CONTINUOUS
10
6.50546
20
-3.69454
11
6.49904
21
-3.68703
0
LINE
8
BLACK
6
CONTINUOUS
10
6.49904
20
-3.68703
11
6.49387
21
-3.6786
0
LINE
8
BLACK
6
CONTINUOUS
10
6.49387
20
-3.6786
11
6.49009
21
-3.66947
0
LINE
8
BLACK
6
CONTINUOUS
10
6.49009
20
-3.66947
11
6.48778
21
-3.65985
0
LINE
8
BLACK
6
CONTINUOUS
10
6.48778
20
-3.65985
11
6.48701
21
-3.65
0
LINE
8
BLACK
6
CONTINUOUS
10
6.48701
20
-3.65
11
6.48778
21
-3.64015
0
LINE
8
BLACK
6
CONTINUOUS
10
6.48778
20
-3.64015
11
6.49009
21
-3.63053
0
LINE
8
BLACK
6
CONTINUOUS
10
6.49009
20
-3.63053
11
6.49387
21
-3.6214
0
LINE
8
BLACK
6
CONTINUOUS
10
6.49387
20
-3.6214
11
6.49904
21
-3.61297
0
LINE
8
BLACK
6
CONTINUOUS
10
6.49904
20
-3.61297
11
6.50546
21
-3.60546
0
LINE
8
BLACK
6
CONTINUOUS
10
6.50546
20
-3.60546
11
6.51297
21
-3.59904
0
LINE
8
BLACK
6
CONTINUOUS
10
6.51297
20
-3.59904
11
6.5214
21
-3.59387
0
LINE
8
BLACK
6
CONTINUOUS
10
6.5214
20
-3.59387
11
6.53053
21
-3.59009
0
LINE
8
BLACK
6
CONTINUOUS
10
6.53053
20
-3.59009
11
6.54015
21
-3.58778
0
LINE
8
BLACK
6
CONTINUOUS
10
6.54015
20
-3.58778
11
6.55
21
-3.58701
0
LINE
8
BLACK
6
CONTINUOUS
10
6.55
20
-3.58701
11
6.55985
21
-3.58778
0
LINE
8
BLACK
6
CONTINUOUS
10
5.82148
20
-3.59839
11
5.82468
21
-3.60052
0
LINE
8
BLACK
6
CONTINUOUS
10
5.82468
20
-3.60052
11
5.82681
21
-3.60371
0
LINE
8
BLACK
6
CONTINUOUS
10
5.82681
20
-3.60371
11
5.82756
21
-3.60748
0
LINE
8
BLACK
6
CONTINUOUS
10
5.82756
20
-3.60748
11
5.82756
21
-3.63504
0
LINE
8
BLACK
6
CONTINUOUS
10
5.82756
20
-3.63504
11
5.82681
21
-3.63881
0
LINE
8
BLACK
6
CONTINUOUS
10
5.82681
20
-3.63881
11
5.82468
21
-3.642
0
LINE
8
BLACK
6
CONTINUOUS
10
5.82468
20
-3.642
11
5.82148
21
-3.64413
0
LINE
8
BLACK
6
CONTINUOUS
10
5.82148
20
-3.64413
11
5.81772
21
-3.64488
0
LINE
8
BLACK
6
CONTINUOUS
10
5.81772
20
-3.64488
11
5.78228
21
-3.64488
0
LINE
8
BLACK
6
CONTINUOUS
10
5.78228
20
-3.64488
11
5.77852
21
-3.64413
0
LINE
8
BLACK
6
CONTINUOUS
10
5.77852
20
-3.64413
11
5.77532
21
-3.642
0
LINE
8
BLACK
6
CONTINUOUS
10
5.77532
20
-3.642
11
5.77319
21
-3.63881
0
LINE
8
BLACK
6
CONTINUOUS
10
5.77319
20
-3.63881
11
5.77244
21
-3.63504
0
LINE
8
BLACK
6
CONTINUOUS
10
5.77244
20
-3.63504
11
5.77244
21
-3.60748
0
LINE
8
BLACK
6
CONTINUOUS
10
5.77244
20
-3.60748
11
5.77319
21
-3.60371
0
LINE
8
BLACK
6
CONTINUOUS
10
5.77319
20
-3.60371
11
5.77532
21
-3.60052
0
LINE
8
BLACK
6
CONTINUOUS
10
5.77532
20
-3.60052
11
5.77852
21
-3.59839
0
LINE
8
BLACK
6
CONTINUOUS
10
5.77852
20
-3.59839
11
5.78228
21
-3.59764
0
LINE
8
BLACK
6
CONTINUOUS
10
5.78228
20
-3.59764
11
5.81772
21
-3.59764
0
LINE
8
BLACK
6
CONTINUOUS
10
5.81772
20
-3.59764
11
5.82148
21
-3.59839
0
LINE
8
BLACK
6
CONTINUOUS
10
6.22148
20
-3.59839
11
6.22468
21
-3.60052
0
LINE
8
BLACK
6
CONTINUOUS
10
6.22468
20
-3.60052
11
6.22681
21
-3.60371
0
LINE
8
BLACK
6
CONTINUOUS
10
6.22681
20
-3.60371
11
6.22756
21
-3.60748
0
LINE
8
BLACK
6
CONTINUOUS
10
6.22756
20
-3.60748
11
6.22756
21
-3.63504
0
LINE
8
BLACK
6
CONTINUOUS
10
6.22756
20
-3.63504
11
6.22681
21
-3.63881
0
LINE
8
BLACK
6
CONTINUOUS
10
6.22681
20
-3.63881
11
6.22468
21
-3.642
0
LINE
8
BLACK
6
CONTINUOUS
10
6.22468
20
-3.642
11
6.22148
21
-3.64413
0
LINE
8
BLACK
6
CONTINUOUS
10
6.22148
20
-3.64413
11
6.21772
21
-3.64488
0
LINE
8
BLACK
6
CONTINUOUS
10
6.21772
20
-3.64488
11
6.18228
21
-3.64488
0
LINE
8
BLACK
6
CONTINUOUS
10
6.18228
20
-3.64488
11
6.17852
21
-3.64413
0
LINE
8
BLACK
6
CONTINUOUS
10
6.17852
20
-3.64413
11
6.17532
21
-3.642
0
LINE
8
BLACK
6
CONTINUOUS
10
6.17532
20
-3.642
11
6.17319
21
-3.63881
0
LINE
8
BLACK
6
CONTINUOUS
10
6.17319
20
-3.63881
11
6.17244
21
-3.63504
0
LINE
8
BLACK
6
CONTINUOUS
10
6.17244
20
-3.63504
11
6.17244
21
-3.60748
0
LINE
8
BLACK
6
CONTINUOUS
10
6.17244
20
-3.60748
11
6.17319
21
-3.60371
0
LINE
8
BLACK
6
CONTINUOUS
10
6.17319
20
-3.60371
11
6.17532
21
-3.60052
0
LINE
8
BLACK
6
CONTINUOUS
10
6.17532
20
-3.60052
11
6.17852
21
-3.59839
0
LINE
8
BLACK
6
CONTINUOUS
10
6.17852
20
-3.59839
11
6.18228
21
-3.59764
0
LINE
8
BLACK
6
CONTINUOUS
10
6.18228
20
-3.59764
11
6.21772
21
-3.59764
0
LINE
8
BLACK
6
CONTINUOUS
10
6.21772
20
-3.59764
11
6.22148
21
-3.59839
  0
ENDSEC
  0
EOF
