%TF.GenerationSoftware,KiCad,Pcbnew,7.0.7*%
%TF.CreationDate,2024-01-02T00:34:10-08:00*%
%TF.ProjectId,base_connector,62617365-5f63-46f6-9e6e-6563746f722e,rev?*%
%TF.SameCoordinates,Original*%
%TF.FileFunction,Copper,L1,Top*%
%TF.FilePolarity,Positive*%
%FSLAX46Y46*%
G04 Gerber Fmt 4.6, Leading zero omitted, Abs format (unit mm)*
G04 Created by KiCad (PCBNEW 7.0.7) date 2024-01-02 00:34:10*
%MOMM*%
%LPD*%
G01*
G04 APERTURE LIST*
G04 Aperture macros list*
%AMRoundRect*
0 Rectangle with rounded corners*
0 $1 Rounding radius*
0 $2 $3 $4 $5 $6 $7 $8 $9 X,Y pos of 4 corners*
0 Add a 4 corners polygon primitive as box body*
4,1,4,$2,$3,$4,$5,$6,$7,$8,$9,$2,$3,0*
0 Add four circle primitives for the rounded corners*
1,1,$1+$1,$2,$3*
1,1,$1+$1,$4,$5*
1,1,$1+$1,$6,$7*
1,1,$1+$1,$8,$9*
0 Add four rect primitives between the rounded corners*
20,1,$1+$1,$2,$3,$4,$5,0*
20,1,$1+$1,$4,$5,$6,$7,0*
20,1,$1+$1,$6,$7,$8,$9,0*
20,1,$1+$1,$8,$9,$2,$3,0*%
G04 Aperture macros list end*
%TA.AperFunction,SMDPad,CuDef*%
%ADD10RoundRect,0.250000X0.450000X-0.350000X0.450000X0.350000X-0.450000X0.350000X-0.450000X-0.350000X0*%
%TD*%
%TA.AperFunction,ComponentPad*%
%ADD11R,2.500000X2.500000*%
%TD*%
%TA.AperFunction,SMDPad,CuDef*%
%ADD12RoundRect,0.250000X-0.450000X0.350000X-0.450000X-0.350000X0.450000X-0.350000X0.450000X0.350000X0*%
%TD*%
%TA.AperFunction,SMDPad,CuDef*%
%ADD13RoundRect,0.250000X-0.350000X-0.450000X0.350000X-0.450000X0.350000X0.450000X-0.350000X0.450000X0*%
%TD*%
%TA.AperFunction,ComponentPad*%
%ADD14C,1.524000*%
%TD*%
%TA.AperFunction,SMDPad,CuDef*%
%ADD15RoundRect,0.250000X0.350000X0.450000X-0.350000X0.450000X-0.350000X-0.450000X0.350000X-0.450000X0*%
%TD*%
%TA.AperFunction,Conductor*%
%ADD16C,0.600000*%
%TD*%
G04 APERTURE END LIST*
D10*
%TO.P,R8,1*%
%TO.N,GND*%
X157480000Y-121380000D03*
%TO.P,R8,2*%
%TO.N,SIG_S*%
X157480000Y-119380000D03*
%TD*%
D11*
%TO.P,TP5,1,1*%
%TO.N,+3V3*%
X160020000Y-99060000D03*
%TD*%
%TO.P,TP1,1,1*%
%TO.N,SIG_N*%
X152400000Y-95250000D03*
%TD*%
%TO.P,TP7,1,1*%
%TO.N,GND*%
X160020000Y-114300000D03*
%TD*%
D12*
%TO.P,R7,1*%
%TO.N,SIG_S*%
X147320000Y-119380000D03*
%TO.P,R7,2*%
%TO.N,+3V3*%
X147320000Y-121380000D03*
%TD*%
D13*
%TO.P,R2,1*%
%TO.N,SIG_E*%
X165100000Y-101600000D03*
%TO.P,R2,2*%
%TO.N,+3V3*%
X167100000Y-101600000D03*
%TD*%
D14*
%TO.P,U1,1,SIG_N*%
%TO.N,SIG_N*%
X152400000Y-104140000D03*
%TO.P,U1,2,SIG_E*%
%TO.N,SIG_E*%
X154940000Y-106680000D03*
%TO.P,U1,3,SIG_S*%
%TO.N,SIG_S*%
X152400000Y-109220000D03*
%TO.P,U1,4,SIG_W*%
%TO.N,SIG_W*%
X149860000Y-106680000D03*
%TO.P,U1,5,VCC*%
%TO.N,+3V3*%
X152400000Y-106680000D03*
%TO.P,U1,6,GND*%
%TO.N,GND*%
X149860000Y-104140000D03*
X149860000Y-109220000D03*
X154940000Y-104140000D03*
X154940000Y-109220000D03*
%TD*%
D10*
%TO.P,R5,1*%
%TO.N,SIG_N*%
X157480000Y-93980000D03*
%TO.P,R5,2*%
%TO.N,+3V3*%
X157480000Y-91980000D03*
%TD*%
D11*
%TO.P,TP4,1,1*%
%TO.N,SIG_E*%
X163830000Y-106680000D03*
%TD*%
%TO.P,TP6,1,1*%
%TO.N,+3V3*%
X144780000Y-114300000D03*
%TD*%
%TO.P,TP3,1,1*%
%TO.N,SIG_S*%
X152400000Y-118110000D03*
%TD*%
D13*
%TO.P,R4,1*%
%TO.N,GND*%
X137700000Y-101600000D03*
%TO.P,R4,2*%
%TO.N,SIG_W*%
X139700000Y-101600000D03*
%TD*%
D11*
%TO.P,TP8,1,1*%
%TO.N,GND*%
X144780000Y-99060000D03*
%TD*%
D15*
%TO.P,R1,1*%
%TO.N,GND*%
X167100000Y-111760000D03*
%TO.P,R1,2*%
%TO.N,SIG_E*%
X165100000Y-111760000D03*
%TD*%
D11*
%TO.P,TP2,1,1*%
%TO.N,SIG_W*%
X140970000Y-106680000D03*
%TD*%
D15*
%TO.P,R3,1*%
%TO.N,SIG_W*%
X139700000Y-111760000D03*
%TO.P,R3,2*%
%TO.N,+3V3*%
X137700000Y-111760000D03*
%TD*%
D12*
%TO.P,R6,1*%
%TO.N,GND*%
X147320000Y-91980000D03*
%TO.P,R6,2*%
%TO.N,SIG_N*%
X147320000Y-93980000D03*
%TD*%
D16*
%TO.N,GND*%
X137700000Y-101600000D02*
X140240000Y-99060000D01*
X157480000Y-121380000D02*
X160020000Y-118840000D01*
X160020000Y-118840000D02*
X160020000Y-114300000D01*
X147320000Y-91980000D02*
X144780000Y-94520000D01*
X140240000Y-99060000D02*
X144780000Y-99060000D01*
X144780000Y-94520000D02*
X144780000Y-99060000D01*
X167100000Y-111760000D02*
X164560000Y-114300000D01*
X164560000Y-114300000D02*
X160020000Y-114300000D01*
%TO.N,SIG_E*%
X165100000Y-107950000D02*
X163830000Y-106680000D01*
X165100000Y-101600000D02*
X165100000Y-105410000D01*
X154940000Y-106680000D02*
X163830000Y-106680000D01*
X165100000Y-105410000D02*
X163830000Y-106680000D01*
X165100000Y-111760000D02*
X165100000Y-107950000D01*
%TO.N,+3V3*%
X151130000Y-107950000D02*
X152400000Y-106680000D01*
X144780000Y-114300000D02*
X144780000Y-118840000D01*
X157480000Y-91980000D02*
X160020000Y-94520000D01*
X160020000Y-99060000D02*
X164560000Y-99060000D01*
X155512000Y-105418000D02*
X153662000Y-105418000D01*
X146564738Y-114300000D02*
X144780000Y-114300000D01*
X151122000Y-107958000D02*
X151122000Y-109742738D01*
X153678000Y-103617262D02*
X158235262Y-99060000D01*
X152400000Y-106680000D02*
X151122000Y-107958000D01*
X158235262Y-99060000D02*
X160020000Y-99060000D01*
X152400000Y-106680000D02*
X153678000Y-105402000D01*
X160020000Y-99060000D02*
X160020000Y-100910000D01*
X164560000Y-99060000D02*
X167100000Y-101600000D01*
X137700000Y-111760000D02*
X140240000Y-114300000D01*
X151122000Y-109742738D02*
X146564738Y-114300000D01*
X144780000Y-112450000D02*
X149280000Y-107950000D01*
X153678000Y-105402000D02*
X153678000Y-103617262D01*
X140240000Y-114300000D02*
X144780000Y-114300000D01*
X153662000Y-105418000D02*
X152400000Y-106680000D01*
X149280000Y-107950000D02*
X151130000Y-107950000D01*
X160020000Y-100910000D02*
X155512000Y-105418000D01*
X144780000Y-114300000D02*
X144780000Y-112450000D01*
X160020000Y-94520000D02*
X160020000Y-99060000D01*
X144780000Y-118840000D02*
X147320000Y-121380000D01*
%TO.N,SIG_W*%
X139700000Y-107950000D02*
X140970000Y-106680000D01*
X139700000Y-105410000D02*
X140970000Y-106680000D01*
X139700000Y-101600000D02*
X139700000Y-105410000D01*
X149860000Y-106680000D02*
X140970000Y-106680000D01*
X139700000Y-111760000D02*
X139700000Y-107950000D01*
%TO.N,SIG_N*%
X151130000Y-93980000D02*
X152400000Y-95250000D01*
X147320000Y-93980000D02*
X151130000Y-93980000D01*
X153670000Y-93980000D02*
X152400000Y-95250000D01*
X157480000Y-93980000D02*
X153670000Y-93980000D01*
X152400000Y-104140000D02*
X152400000Y-95250000D01*
%TO.N,SIG_S*%
X153670000Y-119380000D02*
X152400000Y-118110000D01*
X151130000Y-119380000D02*
X152400000Y-118110000D01*
X147320000Y-119380000D02*
X151130000Y-119380000D01*
X157480000Y-119380000D02*
X153670000Y-119380000D01*
X152400000Y-109220000D02*
X152400000Y-118110000D01*
%TD*%
M02*
