%TF.GenerationSoftware,KiCad,Pcbnew,7.0.7*%
%TF.CreationDate,2024-01-02T00:34:10-08:00*%
%TF.ProjectId,base_connector,62617365-5f63-46f6-9e6e-6563746f722e,rev?*%
%TF.SameCoordinates,Original*%
%TF.FileFunction,Copper,L2,Bot*%
%TF.FilePolarity,Positive*%
%FSLAX46Y46*%
G04 Gerber Fmt 4.6, Leading zero omitted, Abs format (unit mm)*
G04 Created by KiCad (PCBNEW 7.0.7) date 2024-01-02 00:34:10*
%MOMM*%
%LPD*%
G01*
G04 APERTURE LIST*
%TA.AperFunction,ComponentPad*%
%ADD10R,2.500000X2.500000*%
%TD*%
%TA.AperFunction,ComponentPad*%
%ADD11C,1.524000*%
%TD*%
G04 APERTURE END LIST*
D10*
%TO.P,TP5,1,1*%
%TO.N,+3V3*%
X160020000Y-99060000D03*
%TD*%
%TO.P,TP1,1,1*%
%TO.N,SIG_N*%
X152400000Y-95250000D03*
%TD*%
%TO.P,TP7,1,1*%
%TO.N,GND*%
X160020000Y-114300000D03*
%TD*%
D11*
%TO.P,U1,1,SIG_N*%
%TO.N,SIG_N*%
X152400000Y-104140000D03*
%TO.P,U1,2,SIG_E*%
%TO.N,SIG_E*%
X154940000Y-106680000D03*
%TO.P,U1,3,SIG_S*%
%TO.N,SIG_S*%
X152400000Y-109220000D03*
%TO.P,U1,4,SIG_W*%
%TO.N,SIG_W*%
X149860000Y-106680000D03*
%TO.P,U1,5,VCC*%
%TO.N,+3V3*%
X152400000Y-106680000D03*
%TO.P,U1,6,GND*%
%TO.N,GND*%
X149860000Y-104140000D03*
X149860000Y-109220000D03*
X154940000Y-104140000D03*
X154940000Y-109220000D03*
%TD*%
D10*
%TO.P,TP4,1,1*%
%TO.N,SIG_E*%
X163830000Y-106680000D03*
%TD*%
%TO.P,TP6,1,1*%
%TO.N,+3V3*%
X144780000Y-114300000D03*
%TD*%
%TO.P,TP3,1,1*%
%TO.N,SIG_S*%
X152400000Y-118110000D03*
%TD*%
%TO.P,TP8,1,1*%
%TO.N,GND*%
X144780000Y-99060000D03*
%TD*%
%TO.P,TP2,1,1*%
%TO.N,SIG_W*%
X140970000Y-106680000D03*
%TD*%
%TA.AperFunction,Conductor*%
%TO.N,GND*%
G36*
X153737865Y-107133435D02*
G01*
X153782382Y-107184811D01*
X153842464Y-107313658D01*
X153842468Y-107313666D01*
X153969170Y-107494615D01*
X153969175Y-107494621D01*
X154125378Y-107650824D01*
X154125384Y-107650829D01*
X154306333Y-107777531D01*
X154306335Y-107777532D01*
X154306338Y-107777534D01*
X154435189Y-107837618D01*
X154435781Y-107837894D01*
X154488220Y-107884066D01*
X154507372Y-107951260D01*
X154487156Y-108018141D01*
X154435781Y-108062658D01*
X154306586Y-108122903D01*
X154241812Y-108168257D01*
X154241811Y-108168258D01*
X154770723Y-108697170D01*
X154804208Y-108758493D01*
X154799224Y-108828185D01*
X154757352Y-108884118D01*
X154742059Y-108893906D01*
X154702749Y-108915179D01*
X154702748Y-108915179D01*
X154616626Y-109008733D01*
X154616626Y-109008734D01*
X154615911Y-109010365D01*
X154614340Y-109012233D01*
X154611008Y-109017334D01*
X154610391Y-109016931D01*
X154570952Y-109063849D01*
X154504215Y-109084535D01*
X154436888Y-109065857D01*
X154414677Y-109048230D01*
X153888258Y-108521811D01*
X153888257Y-108521812D01*
X153842903Y-108586586D01*
X153782658Y-108715781D01*
X153736485Y-108768220D01*
X153669292Y-108787372D01*
X153602411Y-108767156D01*
X153557894Y-108715781D01*
X153497652Y-108586593D01*
X153497534Y-108586339D01*
X153388415Y-108430500D01*
X153370827Y-108405381D01*
X153339239Y-108373793D01*
X153214620Y-108249174D01*
X153214616Y-108249171D01*
X153214615Y-108249170D01*
X153033666Y-108122468D01*
X153033658Y-108122464D01*
X152904811Y-108062382D01*
X152852371Y-108016210D01*
X152833219Y-107949017D01*
X152853435Y-107882135D01*
X152904811Y-107837618D01*
X152910802Y-107834824D01*
X153033662Y-107777534D01*
X153214620Y-107650826D01*
X153370826Y-107494620D01*
X153497534Y-107313662D01*
X153557617Y-107184811D01*
X153603790Y-107132371D01*
X153670983Y-107113219D01*
X153737865Y-107133435D01*
G37*
%TD.AperFunction*%
%TA.AperFunction,Conductor*%
G36*
X151197865Y-107133435D02*
G01*
X151242382Y-107184811D01*
X151302464Y-107313658D01*
X151302468Y-107313666D01*
X151429170Y-107494615D01*
X151429175Y-107494621D01*
X151585378Y-107650824D01*
X151585384Y-107650829D01*
X151766333Y-107777531D01*
X151766335Y-107777532D01*
X151766338Y-107777534D01*
X151885748Y-107833215D01*
X151895189Y-107837618D01*
X151947628Y-107883790D01*
X151966780Y-107950984D01*
X151946564Y-108017865D01*
X151895189Y-108062382D01*
X151766340Y-108122465D01*
X151766338Y-108122466D01*
X151585377Y-108249175D01*
X151429175Y-108405377D01*
X151302467Y-108586337D01*
X151302466Y-108586339D01*
X151302348Y-108586593D01*
X151242105Y-108715782D01*
X151195932Y-108768221D01*
X151128738Y-108787372D01*
X151061857Y-108767156D01*
X151017341Y-108715780D01*
X150957100Y-108586593D01*
X150957099Y-108586591D01*
X150911740Y-108521811D01*
X150382949Y-109050602D01*
X150321626Y-109084087D01*
X150251934Y-109079103D01*
X150196001Y-109037231D01*
X150191460Y-109030743D01*
X150144189Y-108958391D01*
X150144187Y-108958388D01*
X150088673Y-108915180D01*
X150043843Y-108880287D01*
X150043840Y-108880285D01*
X150043488Y-108880012D01*
X150002675Y-108823301D01*
X149999000Y-108753529D01*
X150031969Y-108694477D01*
X150558187Y-108168258D01*
X150493409Y-108122900D01*
X150493407Y-108122899D01*
X150364219Y-108062658D01*
X150311779Y-108016486D01*
X150292627Y-107949293D01*
X150312843Y-107882411D01*
X150364219Y-107837894D01*
X150364811Y-107837618D01*
X150493662Y-107777534D01*
X150674620Y-107650826D01*
X150830826Y-107494620D01*
X150957534Y-107313662D01*
X151017617Y-107184811D01*
X151063790Y-107132371D01*
X151130983Y-107113219D01*
X151197865Y-107133435D01*
G37*
%TD.AperFunction*%
%TA.AperFunction,Conductor*%
G36*
X150363099Y-104294135D02*
G01*
X150385322Y-104311769D01*
X150911740Y-104838187D01*
X150911742Y-104838186D01*
X150957093Y-104773420D01*
X150957100Y-104773408D01*
X151017342Y-104644219D01*
X151063514Y-104591779D01*
X151130707Y-104572627D01*
X151197588Y-104592842D01*
X151242106Y-104644219D01*
X151302464Y-104773658D01*
X151302468Y-104773666D01*
X151429170Y-104954615D01*
X151429175Y-104954621D01*
X151585378Y-105110824D01*
X151585384Y-105110829D01*
X151766333Y-105237531D01*
X151766335Y-105237532D01*
X151766338Y-105237534D01*
X151885748Y-105293215D01*
X151895189Y-105297618D01*
X151947628Y-105343790D01*
X151966780Y-105410984D01*
X151946564Y-105477865D01*
X151895189Y-105522382D01*
X151766340Y-105582465D01*
X151766338Y-105582466D01*
X151585377Y-105709175D01*
X151429175Y-105865377D01*
X151302466Y-106046338D01*
X151302465Y-106046340D01*
X151242382Y-106175189D01*
X151196209Y-106227628D01*
X151129016Y-106246780D01*
X151062135Y-106226564D01*
X151017618Y-106175189D01*
X150957534Y-106046340D01*
X150957533Y-106046338D01*
X150830827Y-105865381D01*
X150830823Y-105865377D01*
X150674620Y-105709174D01*
X150674616Y-105709171D01*
X150674615Y-105709170D01*
X150493666Y-105582468D01*
X150493658Y-105582464D01*
X150364219Y-105522106D01*
X150311779Y-105475934D01*
X150292627Y-105408741D01*
X150312843Y-105341859D01*
X150364219Y-105297342D01*
X150493408Y-105237100D01*
X150493420Y-105237093D01*
X150558186Y-105191742D01*
X150558187Y-105191740D01*
X150029276Y-104662829D01*
X149995791Y-104601506D01*
X150000775Y-104531814D01*
X150042647Y-104475881D01*
X150057933Y-104466097D01*
X150097251Y-104444820D01*
X150183371Y-104351269D01*
X150184083Y-104349643D01*
X150185652Y-104347777D01*
X150188992Y-104342666D01*
X150189609Y-104343069D01*
X150229036Y-104296158D01*
X150295770Y-104275464D01*
X150363099Y-104294135D01*
G37*
%TD.AperFunction*%
%TA.AperFunction,Conductor*%
G36*
X154548064Y-104280894D02*
G01*
X154603998Y-104322765D01*
X154608539Y-104329254D01*
X154655813Y-104401612D01*
X154756157Y-104479713D01*
X154756160Y-104479714D01*
X154756511Y-104479987D01*
X154797324Y-104536697D01*
X154800999Y-104606470D01*
X154768030Y-104665522D01*
X154241811Y-105191741D01*
X154306582Y-105237094D01*
X154306588Y-105237098D01*
X154435781Y-105297342D01*
X154488220Y-105343514D01*
X154507372Y-105410708D01*
X154487156Y-105477589D01*
X154435781Y-105522106D01*
X154306340Y-105582465D01*
X154306338Y-105582466D01*
X154125377Y-105709175D01*
X153969175Y-105865377D01*
X153842466Y-106046338D01*
X153842465Y-106046340D01*
X153782382Y-106175189D01*
X153736209Y-106227628D01*
X153669016Y-106246780D01*
X153602135Y-106226564D01*
X153557618Y-106175189D01*
X153497534Y-106046340D01*
X153497533Y-106046338D01*
X153370827Y-105865381D01*
X153370823Y-105865377D01*
X153214620Y-105709174D01*
X153214616Y-105709171D01*
X153214615Y-105709170D01*
X153033666Y-105582468D01*
X153033658Y-105582464D01*
X152904811Y-105522382D01*
X152852371Y-105476210D01*
X152833219Y-105409017D01*
X152853435Y-105342135D01*
X152904811Y-105297618D01*
X152910802Y-105294824D01*
X153033662Y-105237534D01*
X153214620Y-105110826D01*
X153370826Y-104954620D01*
X153497534Y-104773662D01*
X153557894Y-104644218D01*
X153604066Y-104591779D01*
X153671259Y-104572627D01*
X153738141Y-104592843D01*
X153782658Y-104644219D01*
X153842899Y-104773407D01*
X153842900Y-104773409D01*
X153888258Y-104838187D01*
X154417050Y-104309395D01*
X154478373Y-104275910D01*
X154548064Y-104280894D01*
G37*
%TD.AperFunction*%
%TA.AperFunction,Conductor*%
G36*
X171392539Y-87650185D02*
G01*
X171438294Y-87702989D01*
X171449500Y-87754500D01*
X171449500Y-125605500D01*
X171429815Y-125672539D01*
X171377011Y-125718294D01*
X171325500Y-125729500D01*
X133474500Y-125729500D01*
X133407461Y-125709815D01*
X133361706Y-125657011D01*
X133350500Y-125605500D01*
X133350500Y-120717763D01*
X136575787Y-120717763D01*
X136605413Y-120987013D01*
X136605415Y-120987024D01*
X136673926Y-121249082D01*
X136673928Y-121249088D01*
X136779870Y-121498390D01*
X136851998Y-121616575D01*
X136920979Y-121729605D01*
X136920986Y-121729615D01*
X137094253Y-121937819D01*
X137094259Y-121937824D01*
X137295998Y-122118582D01*
X137521910Y-122268044D01*
X137767176Y-122383020D01*
X137767183Y-122383022D01*
X137767185Y-122383023D01*
X138026557Y-122461057D01*
X138026564Y-122461058D01*
X138026569Y-122461060D01*
X138294561Y-122500500D01*
X138294566Y-122500500D01*
X138497636Y-122500500D01*
X138549133Y-122496730D01*
X138700156Y-122485677D01*
X138812758Y-122460593D01*
X138964546Y-122426782D01*
X138964548Y-122426781D01*
X138964553Y-122426780D01*
X139217558Y-122330014D01*
X139453777Y-122197441D01*
X139668177Y-122031888D01*
X139856186Y-121836881D01*
X140013799Y-121616579D01*
X140087787Y-121472669D01*
X140137649Y-121375690D01*
X140137651Y-121375684D01*
X140137656Y-121375675D01*
X140225118Y-121119305D01*
X140274319Y-120852933D01*
X140279259Y-120717763D01*
X164515787Y-120717763D01*
X164545413Y-120987013D01*
X164545415Y-120987024D01*
X164613926Y-121249082D01*
X164613928Y-121249088D01*
X164719870Y-121498390D01*
X164791998Y-121616575D01*
X164860979Y-121729605D01*
X164860986Y-121729615D01*
X165034253Y-121937819D01*
X165034259Y-121937824D01*
X165235998Y-122118582D01*
X165461910Y-122268044D01*
X165707176Y-122383020D01*
X165707183Y-122383022D01*
X165707185Y-122383023D01*
X165966557Y-122461057D01*
X165966564Y-122461058D01*
X165966569Y-122461060D01*
X166234561Y-122500500D01*
X166234566Y-122500500D01*
X166437636Y-122500500D01*
X166489133Y-122496730D01*
X166640156Y-122485677D01*
X166752758Y-122460593D01*
X166904546Y-122426782D01*
X166904548Y-122426781D01*
X166904553Y-122426780D01*
X167157558Y-122330014D01*
X167393777Y-122197441D01*
X167608177Y-122031888D01*
X167796186Y-121836881D01*
X167953799Y-121616579D01*
X168027787Y-121472669D01*
X168077649Y-121375690D01*
X168077651Y-121375684D01*
X168077656Y-121375675D01*
X168165118Y-121119305D01*
X168214319Y-120852933D01*
X168224212Y-120582235D01*
X168194586Y-120312982D01*
X168126072Y-120050912D01*
X168020130Y-119801610D01*
X167879018Y-119570390D01*
X167877845Y-119568981D01*
X167705746Y-119362180D01*
X167705740Y-119362175D01*
X167504002Y-119181418D01*
X167278092Y-119031957D01*
X167278090Y-119031956D01*
X167032824Y-118916980D01*
X167032819Y-118916978D01*
X167032814Y-118916976D01*
X166773442Y-118838942D01*
X166773428Y-118838939D01*
X166657791Y-118821921D01*
X166505439Y-118799500D01*
X166302369Y-118799500D01*
X166302364Y-118799500D01*
X166099844Y-118814323D01*
X166099831Y-118814325D01*
X165835453Y-118873217D01*
X165835446Y-118873220D01*
X165582439Y-118969987D01*
X165346226Y-119102557D01*
X165131822Y-119268112D01*
X164943822Y-119463109D01*
X164943816Y-119463116D01*
X164786202Y-119683419D01*
X164786199Y-119683424D01*
X164662350Y-119924309D01*
X164662343Y-119924327D01*
X164574884Y-120180685D01*
X164574881Y-120180699D01*
X164525681Y-120447068D01*
X164525680Y-120447075D01*
X164515787Y-120717763D01*
X140279259Y-120717763D01*
X140284212Y-120582235D01*
X140254586Y-120312982D01*
X140186072Y-120050912D01*
X140080130Y-119801610D01*
X139939018Y-119570390D01*
X139937845Y-119568981D01*
X139803769Y-119407870D01*
X150649500Y-119407870D01*
X150649501Y-119407876D01*
X150655908Y-119467483D01*
X150706202Y-119602328D01*
X150706206Y-119602335D01*
X150792452Y-119717544D01*
X150792455Y-119717547D01*
X150907664Y-119803793D01*
X150907671Y-119803797D01*
X151042517Y-119854091D01*
X151042516Y-119854091D01*
X151049444Y-119854835D01*
X151102127Y-119860500D01*
X153697872Y-119860499D01*
X153757483Y-119854091D01*
X153892331Y-119803796D01*
X154007546Y-119717546D01*
X154093796Y-119602331D01*
X154144091Y-119467483D01*
X154150500Y-119407873D01*
X154150499Y-116812128D01*
X154144091Y-116752517D01*
X154093796Y-116617669D01*
X154093795Y-116617668D01*
X154093793Y-116617664D01*
X154007547Y-116502455D01*
X154007544Y-116502452D01*
X153892335Y-116416206D01*
X153892328Y-116416202D01*
X153757482Y-116365908D01*
X153757483Y-116365908D01*
X153697883Y-116359501D01*
X153697881Y-116359500D01*
X153697873Y-116359500D01*
X153697864Y-116359500D01*
X151102129Y-116359500D01*
X151102123Y-116359501D01*
X151042516Y-116365908D01*
X150907671Y-116416202D01*
X150907664Y-116416206D01*
X150792455Y-116502452D01*
X150792452Y-116502455D01*
X150706206Y-116617664D01*
X150706202Y-116617671D01*
X150655908Y-116752517D01*
X150649501Y-116812116D01*
X150649501Y-116812123D01*
X150649500Y-116812135D01*
X150649500Y-119407870D01*
X139803769Y-119407870D01*
X139765746Y-119362180D01*
X139765740Y-119362175D01*
X139564002Y-119181418D01*
X139338092Y-119031957D01*
X139338090Y-119031956D01*
X139092824Y-118916980D01*
X139092819Y-118916978D01*
X139092814Y-118916976D01*
X138833442Y-118838942D01*
X138833428Y-118838939D01*
X138717791Y-118821921D01*
X138565439Y-118799500D01*
X138362369Y-118799500D01*
X138362364Y-118799500D01*
X138159844Y-118814323D01*
X138159831Y-118814325D01*
X137895453Y-118873217D01*
X137895446Y-118873220D01*
X137642439Y-118969987D01*
X137406226Y-119102557D01*
X137191822Y-119268112D01*
X137003822Y-119463109D01*
X137003816Y-119463116D01*
X136846202Y-119683419D01*
X136846199Y-119683424D01*
X136722350Y-119924309D01*
X136722343Y-119924327D01*
X136634884Y-120180685D01*
X136634881Y-120180699D01*
X136585681Y-120447068D01*
X136585680Y-120447075D01*
X136575787Y-120717763D01*
X133350500Y-120717763D01*
X133350500Y-115597870D01*
X143029500Y-115597870D01*
X143029501Y-115597876D01*
X143035908Y-115657483D01*
X143086202Y-115792328D01*
X143086206Y-115792335D01*
X143172452Y-115907544D01*
X143172455Y-115907547D01*
X143287664Y-115993793D01*
X143287671Y-115993797D01*
X143422517Y-116044091D01*
X143422516Y-116044091D01*
X143429444Y-116044835D01*
X143482127Y-116050500D01*
X146077872Y-116050499D01*
X146137483Y-116044091D01*
X146272331Y-115993796D01*
X146387546Y-115907546D01*
X146473796Y-115792331D01*
X146524091Y-115657483D01*
X146530500Y-115597873D01*
X146530500Y-115597844D01*
X158270000Y-115597844D01*
X158276401Y-115657372D01*
X158276403Y-115657379D01*
X158326645Y-115792086D01*
X158326649Y-115792093D01*
X158412809Y-115907187D01*
X158412812Y-115907190D01*
X158527906Y-115993350D01*
X158527913Y-115993354D01*
X158662620Y-116043596D01*
X158662627Y-116043598D01*
X158722155Y-116049999D01*
X158722172Y-116050000D01*
X159770000Y-116050000D01*
X159770000Y-115013658D01*
X159789685Y-114946619D01*
X159842489Y-114900864D01*
X159910184Y-114890719D01*
X159980677Y-114900000D01*
X159980684Y-114900000D01*
X160059316Y-114900000D01*
X160059323Y-114900000D01*
X160129815Y-114890719D01*
X160198849Y-114901484D01*
X160251105Y-114947864D01*
X160270000Y-115013658D01*
X160270000Y-116050000D01*
X161317828Y-116050000D01*
X161317844Y-116049999D01*
X161377372Y-116043598D01*
X161377379Y-116043596D01*
X161512086Y-115993354D01*
X161512093Y-115993350D01*
X161627187Y-115907190D01*
X161627190Y-115907187D01*
X161713350Y-115792093D01*
X161713354Y-115792086D01*
X161763596Y-115657379D01*
X161763598Y-115657372D01*
X161769999Y-115597844D01*
X161770000Y-115597827D01*
X161770000Y-114550000D01*
X160733658Y-114550000D01*
X160666619Y-114530315D01*
X160620864Y-114477511D01*
X160610719Y-114409816D01*
X160625177Y-114300000D01*
X160610719Y-114190183D01*
X160621484Y-114121151D01*
X160667864Y-114068895D01*
X160733658Y-114050000D01*
X161770000Y-114050000D01*
X161770000Y-113002172D01*
X161769999Y-113002155D01*
X161763598Y-112942627D01*
X161763596Y-112942620D01*
X161713354Y-112807913D01*
X161713350Y-112807906D01*
X161627190Y-112692812D01*
X161627187Y-112692809D01*
X161512093Y-112606649D01*
X161512086Y-112606645D01*
X161377379Y-112556403D01*
X161377372Y-112556401D01*
X161317844Y-112550000D01*
X160270000Y-112550000D01*
X160270000Y-113586341D01*
X160250315Y-113653380D01*
X160197511Y-113699135D01*
X160129815Y-113709280D01*
X160059333Y-113700001D01*
X160059328Y-113700000D01*
X160059323Y-113700000D01*
X159980677Y-113700000D01*
X159980671Y-113700000D01*
X159980666Y-113700001D01*
X159910185Y-113709280D01*
X159841150Y-113698514D01*
X159788894Y-113652134D01*
X159770000Y-113586341D01*
X159770000Y-112550000D01*
X158722155Y-112550000D01*
X158662627Y-112556401D01*
X158662620Y-112556403D01*
X158527913Y-112606645D01*
X158527906Y-112606649D01*
X158412812Y-112692809D01*
X158412809Y-112692812D01*
X158326649Y-112807906D01*
X158326645Y-112807913D01*
X158276403Y-112942620D01*
X158276401Y-112942627D01*
X158270000Y-113002155D01*
X158270000Y-114050000D01*
X159306342Y-114050000D01*
X159373381Y-114069685D01*
X159419136Y-114122489D01*
X159429280Y-114190183D01*
X159414823Y-114300000D01*
X159429280Y-114409816D01*
X159418516Y-114478849D01*
X159372136Y-114531105D01*
X159306342Y-114550000D01*
X158270000Y-114550000D01*
X158270000Y-115597844D01*
X146530500Y-115597844D01*
X146530499Y-113002128D01*
X146524091Y-112942517D01*
X146473884Y-112807906D01*
X146473797Y-112807671D01*
X146473793Y-112807664D01*
X146387547Y-112692455D01*
X146387544Y-112692452D01*
X146272335Y-112606206D01*
X146272328Y-112606202D01*
X146137482Y-112555908D01*
X146137483Y-112555908D01*
X146077883Y-112549501D01*
X146077881Y-112549500D01*
X146077873Y-112549500D01*
X146077864Y-112549500D01*
X143482129Y-112549500D01*
X143482123Y-112549501D01*
X143422516Y-112555908D01*
X143287671Y-112606202D01*
X143287664Y-112606206D01*
X143172455Y-112692452D01*
X143172452Y-112692455D01*
X143086206Y-112807664D01*
X143086202Y-112807671D01*
X143035908Y-112942517D01*
X143029501Y-113002116D01*
X143029501Y-113002123D01*
X143029500Y-113002135D01*
X143029500Y-115597870D01*
X133350500Y-115597870D01*
X133350500Y-107977870D01*
X139219500Y-107977870D01*
X139219501Y-107977876D01*
X139225908Y-108037483D01*
X139276202Y-108172328D01*
X139276206Y-108172335D01*
X139362452Y-108287544D01*
X139362455Y-108287547D01*
X139477664Y-108373793D01*
X139477671Y-108373797D01*
X139612517Y-108424091D01*
X139612516Y-108424091D01*
X139619444Y-108424835D01*
X139672127Y-108430500D01*
X142267872Y-108430499D01*
X142327483Y-108424091D01*
X142462331Y-108373796D01*
X142577546Y-108287546D01*
X142663796Y-108172331D01*
X142714091Y-108037483D01*
X142720500Y-107977873D01*
X142720500Y-106680002D01*
X148592677Y-106680002D01*
X148611929Y-106900062D01*
X148611930Y-106900070D01*
X148669104Y-107113445D01*
X148669105Y-107113447D01*
X148669106Y-107113450D01*
X148702382Y-107184811D01*
X148762466Y-107313662D01*
X148762468Y-107313666D01*
X148889170Y-107494615D01*
X148889175Y-107494621D01*
X149045378Y-107650824D01*
X149045384Y-107650829D01*
X149226333Y-107777531D01*
X149226335Y-107777532D01*
X149226338Y-107777534D01*
X149355189Y-107837618D01*
X149355781Y-107837894D01*
X149408220Y-107884066D01*
X149427372Y-107951260D01*
X149407156Y-108018141D01*
X149355781Y-108062658D01*
X149226586Y-108122903D01*
X149161812Y-108168257D01*
X149161811Y-108168258D01*
X149690723Y-108697170D01*
X149724208Y-108758493D01*
X149719224Y-108828185D01*
X149677352Y-108884118D01*
X149662059Y-108893906D01*
X149622749Y-108915179D01*
X149622748Y-108915179D01*
X149536626Y-109008733D01*
X149536626Y-109008734D01*
X149535911Y-109010365D01*
X149534340Y-109012233D01*
X149531008Y-109017334D01*
X149530391Y-109016931D01*
X149490952Y-109063849D01*
X149424215Y-109084535D01*
X149356888Y-109065857D01*
X149334677Y-109048230D01*
X148808258Y-108521811D01*
X148808257Y-108521812D01*
X148762903Y-108586586D01*
X148669579Y-108786720D01*
X148669575Y-108786729D01*
X148612426Y-109000013D01*
X148612424Y-109000023D01*
X148593179Y-109219999D01*
X148593179Y-109220000D01*
X148612424Y-109439976D01*
X148612426Y-109439986D01*
X148669575Y-109653270D01*
X148669580Y-109653284D01*
X148762899Y-109853407D01*
X148762900Y-109853409D01*
X148808258Y-109918187D01*
X149337050Y-109389395D01*
X149398373Y-109355910D01*
X149468064Y-109360894D01*
X149523998Y-109402765D01*
X149528539Y-109409254D01*
X149575813Y-109481612D01*
X149676157Y-109559713D01*
X149676160Y-109559714D01*
X149676511Y-109559987D01*
X149717324Y-109616697D01*
X149720999Y-109686470D01*
X149688030Y-109745522D01*
X149161811Y-110271741D01*
X149226582Y-110317094D01*
X149226592Y-110317100D01*
X149426715Y-110410419D01*
X149426729Y-110410424D01*
X149640013Y-110467573D01*
X149640023Y-110467575D01*
X149859999Y-110486821D01*
X149860001Y-110486821D01*
X150079976Y-110467575D01*
X150079986Y-110467573D01*
X150293270Y-110410424D01*
X150293284Y-110410419D01*
X150493408Y-110317100D01*
X150493420Y-110317093D01*
X150558186Y-110271742D01*
X150558187Y-110271740D01*
X150029276Y-109742829D01*
X149995791Y-109681506D01*
X150000775Y-109611814D01*
X150042647Y-109555881D01*
X150057933Y-109546097D01*
X150097251Y-109524820D01*
X150183371Y-109431269D01*
X150184083Y-109429643D01*
X150185652Y-109427777D01*
X150188992Y-109422666D01*
X150189609Y-109423069D01*
X150229036Y-109376158D01*
X150295770Y-109355464D01*
X150363099Y-109374135D01*
X150385322Y-109391769D01*
X150911740Y-109918187D01*
X150911742Y-109918186D01*
X150957093Y-109853420D01*
X150957100Y-109853408D01*
X151017342Y-109724219D01*
X151063514Y-109671779D01*
X151130707Y-109652627D01*
X151197588Y-109672842D01*
X151242106Y-109724219D01*
X151302464Y-109853658D01*
X151302468Y-109853666D01*
X151429170Y-110034615D01*
X151429175Y-110034621D01*
X151585378Y-110190824D01*
X151585384Y-110190829D01*
X151766333Y-110317531D01*
X151766335Y-110317532D01*
X151766338Y-110317534D01*
X151966550Y-110410894D01*
X152179932Y-110468070D01*
X152337123Y-110481822D01*
X152399998Y-110487323D01*
X152400000Y-110487323D01*
X152400002Y-110487323D01*
X152455017Y-110482509D01*
X152620068Y-110468070D01*
X152833450Y-110410894D01*
X153033662Y-110317534D01*
X153214620Y-110190826D01*
X153370826Y-110034620D01*
X153497534Y-109853662D01*
X153557894Y-109724218D01*
X153604066Y-109671779D01*
X153671259Y-109652627D01*
X153738141Y-109672843D01*
X153782658Y-109724219D01*
X153842899Y-109853407D01*
X153842900Y-109853409D01*
X153888258Y-109918187D01*
X154417050Y-109389395D01*
X154478373Y-109355910D01*
X154548064Y-109360894D01*
X154603998Y-109402765D01*
X154608539Y-109409254D01*
X154655813Y-109481612D01*
X154756157Y-109559713D01*
X154756160Y-109559714D01*
X154756511Y-109559987D01*
X154797324Y-109616697D01*
X154800999Y-109686470D01*
X154768030Y-109745522D01*
X154241811Y-110271741D01*
X154306582Y-110317094D01*
X154306592Y-110317100D01*
X154506715Y-110410419D01*
X154506729Y-110410424D01*
X154720013Y-110467573D01*
X154720023Y-110467575D01*
X154939999Y-110486821D01*
X154940001Y-110486821D01*
X155159976Y-110467575D01*
X155159986Y-110467573D01*
X155373270Y-110410424D01*
X155373284Y-110410419D01*
X155573408Y-110317100D01*
X155573420Y-110317093D01*
X155638186Y-110271742D01*
X155638187Y-110271740D01*
X155109276Y-109742829D01*
X155075791Y-109681506D01*
X155080775Y-109611814D01*
X155122647Y-109555881D01*
X155137933Y-109546097D01*
X155177251Y-109524820D01*
X155263371Y-109431269D01*
X155264083Y-109429643D01*
X155265652Y-109427777D01*
X155268992Y-109422666D01*
X155269609Y-109423069D01*
X155309036Y-109376158D01*
X155375770Y-109355464D01*
X155443099Y-109374135D01*
X155465322Y-109391769D01*
X155991740Y-109918187D01*
X155991742Y-109918186D01*
X156037093Y-109853420D01*
X156037100Y-109853408D01*
X156130419Y-109653284D01*
X156130424Y-109653270D01*
X156187573Y-109439986D01*
X156187575Y-109439976D01*
X156206821Y-109220000D01*
X156206821Y-109219999D01*
X156187575Y-109000023D01*
X156187573Y-109000013D01*
X156130424Y-108786729D01*
X156130420Y-108786720D01*
X156037098Y-108586590D01*
X155991740Y-108521811D01*
X155462949Y-109050602D01*
X155401626Y-109084087D01*
X155331934Y-109079103D01*
X155276001Y-109037231D01*
X155271460Y-109030743D01*
X155224189Y-108958391D01*
X155224187Y-108958388D01*
X155168673Y-108915180D01*
X155123843Y-108880287D01*
X155123840Y-108880285D01*
X155123488Y-108880012D01*
X155082675Y-108823301D01*
X155079000Y-108753529D01*
X155111969Y-108694477D01*
X155638187Y-108168258D01*
X155573409Y-108122900D01*
X155573407Y-108122899D01*
X155444219Y-108062658D01*
X155391779Y-108016486D01*
X155380772Y-107977870D01*
X162079500Y-107977870D01*
X162079501Y-107977876D01*
X162085908Y-108037483D01*
X162136202Y-108172328D01*
X162136206Y-108172335D01*
X162222452Y-108287544D01*
X162222455Y-108287547D01*
X162337664Y-108373793D01*
X162337671Y-108373797D01*
X162472517Y-108424091D01*
X162472516Y-108424091D01*
X162479444Y-108424835D01*
X162532127Y-108430500D01*
X165127872Y-108430499D01*
X165187483Y-108424091D01*
X165322331Y-108373796D01*
X165437546Y-108287546D01*
X165523796Y-108172331D01*
X165574091Y-108037483D01*
X165580500Y-107977873D01*
X165580499Y-105382128D01*
X165574091Y-105322517D01*
X165564804Y-105297618D01*
X165523797Y-105187671D01*
X165523793Y-105187664D01*
X165437547Y-105072455D01*
X165437544Y-105072452D01*
X165322335Y-104986206D01*
X165322328Y-104986202D01*
X165187482Y-104935908D01*
X165187483Y-104935908D01*
X165127883Y-104929501D01*
X165127881Y-104929500D01*
X165127873Y-104929500D01*
X165127864Y-104929500D01*
X162532129Y-104929500D01*
X162532123Y-104929501D01*
X162472516Y-104935908D01*
X162337671Y-104986202D01*
X162337664Y-104986206D01*
X162222455Y-105072452D01*
X162222452Y-105072455D01*
X162136206Y-105187664D01*
X162136202Y-105187671D01*
X162085908Y-105322517D01*
X162079501Y-105382116D01*
X162079501Y-105382123D01*
X162079500Y-105382135D01*
X162079500Y-107977870D01*
X155380772Y-107977870D01*
X155372627Y-107949293D01*
X155392843Y-107882411D01*
X155444219Y-107837894D01*
X155444811Y-107837618D01*
X155573662Y-107777534D01*
X155754620Y-107650826D01*
X155910826Y-107494620D01*
X156037534Y-107313662D01*
X156130894Y-107113450D01*
X156188070Y-106900068D01*
X156207323Y-106680000D01*
X156188070Y-106459932D01*
X156130894Y-106246550D01*
X156037534Y-106046339D01*
X155910826Y-105865380D01*
X155754620Y-105709174D01*
X155754616Y-105709171D01*
X155754615Y-105709170D01*
X155573666Y-105582468D01*
X155573658Y-105582464D01*
X155444219Y-105522106D01*
X155391779Y-105475934D01*
X155372627Y-105408741D01*
X155392843Y-105341859D01*
X155444219Y-105297342D01*
X155573408Y-105237100D01*
X155573420Y-105237093D01*
X155638186Y-105191742D01*
X155638187Y-105191740D01*
X155109276Y-104662829D01*
X155075791Y-104601506D01*
X155080775Y-104531814D01*
X155122647Y-104475881D01*
X155137933Y-104466097D01*
X155177251Y-104444820D01*
X155263371Y-104351269D01*
X155264083Y-104349643D01*
X155265652Y-104347777D01*
X155268992Y-104342666D01*
X155269609Y-104343069D01*
X155309036Y-104296158D01*
X155375770Y-104275464D01*
X155443099Y-104294135D01*
X155465322Y-104311769D01*
X155991740Y-104838187D01*
X155991742Y-104838186D01*
X156037093Y-104773420D01*
X156037100Y-104773408D01*
X156130419Y-104573284D01*
X156130424Y-104573270D01*
X156187573Y-104359986D01*
X156187575Y-104359976D01*
X156206821Y-104140000D01*
X156206821Y-104139999D01*
X156187575Y-103920023D01*
X156187573Y-103920013D01*
X156130424Y-103706729D01*
X156130420Y-103706720D01*
X156037098Y-103506590D01*
X155991740Y-103441811D01*
X155462949Y-103970602D01*
X155401626Y-104004087D01*
X155331934Y-103999103D01*
X155276001Y-103957231D01*
X155271460Y-103950743D01*
X155224189Y-103878391D01*
X155224187Y-103878388D01*
X155168673Y-103835180D01*
X155123843Y-103800287D01*
X155123840Y-103800285D01*
X155123488Y-103800012D01*
X155082675Y-103743301D01*
X155079000Y-103673529D01*
X155111969Y-103614477D01*
X155638187Y-103088258D01*
X155573409Y-103042900D01*
X155573407Y-103042899D01*
X155373284Y-102949580D01*
X155373270Y-102949575D01*
X155159986Y-102892426D01*
X155159976Y-102892424D01*
X154940001Y-102873179D01*
X154939999Y-102873179D01*
X154720023Y-102892424D01*
X154720013Y-102892426D01*
X154506729Y-102949575D01*
X154506720Y-102949579D01*
X154306586Y-103042903D01*
X154241812Y-103088257D01*
X154241811Y-103088258D01*
X154770723Y-103617170D01*
X154804208Y-103678493D01*
X154799224Y-103748185D01*
X154757352Y-103804118D01*
X154742059Y-103813906D01*
X154702749Y-103835179D01*
X154702748Y-103835179D01*
X154616626Y-103928733D01*
X154616626Y-103928734D01*
X154615911Y-103930365D01*
X154614340Y-103932233D01*
X154611008Y-103937334D01*
X154610391Y-103936931D01*
X154570952Y-103983849D01*
X154504215Y-104004535D01*
X154436888Y-103985857D01*
X154414677Y-103968230D01*
X153888258Y-103441811D01*
X153888257Y-103441812D01*
X153842903Y-103506586D01*
X153782658Y-103635781D01*
X153736485Y-103688220D01*
X153669292Y-103707372D01*
X153602411Y-103687156D01*
X153557894Y-103635781D01*
X153497652Y-103506593D01*
X153497534Y-103506339D01*
X153370826Y-103325380D01*
X153214620Y-103169174D01*
X153214616Y-103169171D01*
X153214615Y-103169170D01*
X153033666Y-103042468D01*
X153033662Y-103042466D01*
X153033660Y-103042465D01*
X152833450Y-102949106D01*
X152833447Y-102949105D01*
X152833445Y-102949104D01*
X152620070Y-102891930D01*
X152620062Y-102891929D01*
X152400002Y-102872677D01*
X152399998Y-102872677D01*
X152179937Y-102891929D01*
X152179929Y-102891930D01*
X151966554Y-102949104D01*
X151966548Y-102949107D01*
X151766340Y-103042465D01*
X151766338Y-103042466D01*
X151585377Y-103169175D01*
X151429175Y-103325377D01*
X151302467Y-103506337D01*
X151302466Y-103506339D01*
X151302348Y-103506593D01*
X151242105Y-103635782D01*
X151195932Y-103688221D01*
X151128738Y-103707372D01*
X151061857Y-103687156D01*
X151017341Y-103635780D01*
X150957100Y-103506593D01*
X150957099Y-103506591D01*
X150911740Y-103441811D01*
X150382949Y-103970602D01*
X150321626Y-104004087D01*
X150251934Y-103999103D01*
X150196001Y-103957231D01*
X150191460Y-103950743D01*
X150144189Y-103878391D01*
X150144187Y-103878388D01*
X150088673Y-103835180D01*
X150043843Y-103800287D01*
X150043840Y-103800285D01*
X150043488Y-103800012D01*
X150002675Y-103743301D01*
X149999000Y-103673529D01*
X150031969Y-103614477D01*
X150558187Y-103088258D01*
X150493409Y-103042900D01*
X150493407Y-103042899D01*
X150293284Y-102949580D01*
X150293270Y-102949575D01*
X150079986Y-102892426D01*
X150079976Y-102892424D01*
X149860001Y-102873179D01*
X149859999Y-102873179D01*
X149640023Y-102892424D01*
X149640013Y-102892426D01*
X149426729Y-102949575D01*
X149426720Y-102949579D01*
X149226586Y-103042903D01*
X149161812Y-103088257D01*
X149161811Y-103088258D01*
X149690723Y-103617170D01*
X149724208Y-103678493D01*
X149719224Y-103748185D01*
X149677352Y-103804118D01*
X149662059Y-103813906D01*
X149622749Y-103835179D01*
X149622748Y-103835179D01*
X149536626Y-103928733D01*
X149536626Y-103928734D01*
X149535911Y-103930365D01*
X149534340Y-103932233D01*
X149531008Y-103937334D01*
X149530391Y-103936931D01*
X149490952Y-103983849D01*
X149424215Y-104004535D01*
X149356888Y-103985857D01*
X149334677Y-103968230D01*
X148808258Y-103441811D01*
X148808257Y-103441812D01*
X148762903Y-103506586D01*
X148669579Y-103706720D01*
X148669575Y-103706729D01*
X148612426Y-103920013D01*
X148612424Y-103920023D01*
X148593179Y-104139999D01*
X148593179Y-104140000D01*
X148612424Y-104359976D01*
X148612426Y-104359986D01*
X148669575Y-104573270D01*
X148669580Y-104573284D01*
X148762899Y-104773407D01*
X148762900Y-104773409D01*
X148808258Y-104838187D01*
X149337050Y-104309395D01*
X149398373Y-104275910D01*
X149468064Y-104280894D01*
X149523998Y-104322765D01*
X149528539Y-104329254D01*
X149575813Y-104401612D01*
X149676157Y-104479713D01*
X149676160Y-104479714D01*
X149676511Y-104479987D01*
X149717324Y-104536697D01*
X149720999Y-104606470D01*
X149688030Y-104665522D01*
X149161811Y-105191741D01*
X149226582Y-105237094D01*
X149226588Y-105237098D01*
X149355781Y-105297342D01*
X149408220Y-105343514D01*
X149427372Y-105410708D01*
X149407156Y-105477589D01*
X149355781Y-105522106D01*
X149226340Y-105582465D01*
X149226338Y-105582466D01*
X149045377Y-105709175D01*
X148889175Y-105865377D01*
X148762466Y-106046338D01*
X148762465Y-106046340D01*
X148669107Y-106246548D01*
X148669104Y-106246554D01*
X148611930Y-106459929D01*
X148611929Y-106459937D01*
X148592677Y-106679997D01*
X148592677Y-106680002D01*
X142720500Y-106680002D01*
X142720499Y-105382128D01*
X142714091Y-105322517D01*
X142704804Y-105297618D01*
X142663797Y-105187671D01*
X142663793Y-105187664D01*
X142577547Y-105072455D01*
X142577544Y-105072452D01*
X142462335Y-104986206D01*
X142462328Y-104986202D01*
X142327482Y-104935908D01*
X142327483Y-104935908D01*
X142267883Y-104929501D01*
X142267881Y-104929500D01*
X142267873Y-104929500D01*
X142267864Y-104929500D01*
X139672129Y-104929500D01*
X139672123Y-104929501D01*
X139612516Y-104935908D01*
X139477671Y-104986202D01*
X139477664Y-104986206D01*
X139362455Y-105072452D01*
X139362452Y-105072455D01*
X139276206Y-105187664D01*
X139276202Y-105187671D01*
X139225908Y-105322517D01*
X139219501Y-105382116D01*
X139219501Y-105382123D01*
X139219500Y-105382135D01*
X139219500Y-107977870D01*
X133350500Y-107977870D01*
X133350500Y-100357844D01*
X143030000Y-100357844D01*
X143036401Y-100417372D01*
X143036403Y-100417379D01*
X143086645Y-100552086D01*
X143086649Y-100552093D01*
X143172809Y-100667187D01*
X143172812Y-100667190D01*
X143287906Y-100753350D01*
X143287913Y-100753354D01*
X143422620Y-100803596D01*
X143422627Y-100803598D01*
X143482155Y-100809999D01*
X143482172Y-100810000D01*
X144530000Y-100810000D01*
X144530000Y-99773658D01*
X144549685Y-99706619D01*
X144602489Y-99660864D01*
X144670184Y-99650719D01*
X144740677Y-99660000D01*
X144740684Y-99660000D01*
X144819316Y-99660000D01*
X144819323Y-99660000D01*
X144889815Y-99650719D01*
X144958849Y-99661484D01*
X145011105Y-99707864D01*
X145030000Y-99773658D01*
X145030000Y-100810000D01*
X146077828Y-100810000D01*
X146077844Y-100809999D01*
X146137372Y-100803598D01*
X146137379Y-100803596D01*
X146272086Y-100753354D01*
X146272093Y-100753350D01*
X146387187Y-100667190D01*
X146387190Y-100667187D01*
X146473350Y-100552093D01*
X146473354Y-100552086D01*
X146523596Y-100417379D01*
X146523598Y-100417372D01*
X146529996Y-100357870D01*
X158269500Y-100357870D01*
X158269501Y-100357876D01*
X158275908Y-100417483D01*
X158326202Y-100552328D01*
X158326206Y-100552335D01*
X158412452Y-100667544D01*
X158412455Y-100667547D01*
X158527664Y-100753793D01*
X158527671Y-100753797D01*
X158662517Y-100804091D01*
X158662516Y-100804091D01*
X158669444Y-100804835D01*
X158722127Y-100810500D01*
X161317872Y-100810499D01*
X161377483Y-100804091D01*
X161512331Y-100753796D01*
X161627546Y-100667546D01*
X161713796Y-100552331D01*
X161764091Y-100417483D01*
X161770500Y-100357873D01*
X161770499Y-97762128D01*
X161764091Y-97702517D01*
X161713884Y-97567906D01*
X161713797Y-97567671D01*
X161713793Y-97567664D01*
X161627547Y-97452455D01*
X161627544Y-97452452D01*
X161512335Y-97366206D01*
X161512328Y-97366202D01*
X161377482Y-97315908D01*
X161377483Y-97315908D01*
X161317883Y-97309501D01*
X161317881Y-97309500D01*
X161317873Y-97309500D01*
X161317864Y-97309500D01*
X158722129Y-97309500D01*
X158722123Y-97309501D01*
X158662516Y-97315908D01*
X158527671Y-97366202D01*
X158527664Y-97366206D01*
X158412455Y-97452452D01*
X158412452Y-97452455D01*
X158326206Y-97567664D01*
X158326202Y-97567671D01*
X158275908Y-97702517D01*
X158269501Y-97762116D01*
X158269501Y-97762123D01*
X158269500Y-97762135D01*
X158269500Y-100357870D01*
X146529996Y-100357870D01*
X146529999Y-100357844D01*
X146530000Y-100357827D01*
X146530000Y-99310000D01*
X145493658Y-99310000D01*
X145426619Y-99290315D01*
X145380864Y-99237511D01*
X145370719Y-99169816D01*
X145385177Y-99060000D01*
X145370719Y-98950183D01*
X145381484Y-98881151D01*
X145427864Y-98828895D01*
X145493658Y-98810000D01*
X146530000Y-98810000D01*
X146530000Y-97762172D01*
X146529999Y-97762155D01*
X146523598Y-97702627D01*
X146523596Y-97702620D01*
X146473354Y-97567913D01*
X146473350Y-97567906D01*
X146387190Y-97452812D01*
X146387187Y-97452809D01*
X146272093Y-97366649D01*
X146272086Y-97366645D01*
X146137379Y-97316403D01*
X146137372Y-97316401D01*
X146077844Y-97310000D01*
X145030000Y-97310000D01*
X145030000Y-98346341D01*
X145010315Y-98413380D01*
X144957511Y-98459135D01*
X144889815Y-98469280D01*
X144819333Y-98460001D01*
X144819328Y-98460000D01*
X144819323Y-98460000D01*
X144740677Y-98460000D01*
X144740671Y-98460000D01*
X144740666Y-98460001D01*
X144670185Y-98469280D01*
X144601150Y-98458514D01*
X144548894Y-98412134D01*
X144530000Y-98346341D01*
X144530000Y-97310000D01*
X143482155Y-97310000D01*
X143422627Y-97316401D01*
X143422620Y-97316403D01*
X143287913Y-97366645D01*
X143287906Y-97366649D01*
X143172812Y-97452809D01*
X143172809Y-97452812D01*
X143086649Y-97567906D01*
X143086645Y-97567913D01*
X143036403Y-97702620D01*
X143036401Y-97702627D01*
X143030000Y-97762155D01*
X143030000Y-98810000D01*
X144066342Y-98810000D01*
X144133381Y-98829685D01*
X144179136Y-98882489D01*
X144189280Y-98950183D01*
X144174823Y-99060000D01*
X144189280Y-99169816D01*
X144178516Y-99238849D01*
X144132136Y-99291105D01*
X144066342Y-99310000D01*
X143030000Y-99310000D01*
X143030000Y-100357844D01*
X133350500Y-100357844D01*
X133350500Y-96547870D01*
X150649500Y-96547870D01*
X150649501Y-96547876D01*
X150655908Y-96607483D01*
X150706202Y-96742328D01*
X150706206Y-96742335D01*
X150792452Y-96857544D01*
X150792455Y-96857547D01*
X150907664Y-96943793D01*
X150907671Y-96943797D01*
X151042517Y-96994091D01*
X151042516Y-96994091D01*
X151049444Y-96994835D01*
X151102127Y-97000500D01*
X153697872Y-97000499D01*
X153757483Y-96994091D01*
X153892331Y-96943796D01*
X154007546Y-96857546D01*
X154093796Y-96742331D01*
X154144091Y-96607483D01*
X154150500Y-96547873D01*
X154150499Y-93952128D01*
X154144091Y-93892517D01*
X154105707Y-93789605D01*
X154093797Y-93757671D01*
X154093793Y-93757664D01*
X154007547Y-93642455D01*
X154007544Y-93642452D01*
X153892335Y-93556206D01*
X153892328Y-93556202D01*
X153757482Y-93505908D01*
X153757483Y-93505908D01*
X153697883Y-93499501D01*
X153697881Y-93499500D01*
X153697873Y-93499500D01*
X153697864Y-93499500D01*
X151102129Y-93499500D01*
X151102123Y-93499501D01*
X151042516Y-93505908D01*
X150907671Y-93556202D01*
X150907664Y-93556206D01*
X150792455Y-93642452D01*
X150792452Y-93642455D01*
X150706206Y-93757664D01*
X150706202Y-93757671D01*
X150655908Y-93892517D01*
X150649501Y-93952116D01*
X150649501Y-93952123D01*
X150649500Y-93952135D01*
X150649500Y-96547870D01*
X133350500Y-96547870D01*
X133350500Y-92777763D01*
X136575787Y-92777763D01*
X136605413Y-93047013D01*
X136605415Y-93047024D01*
X136673926Y-93309082D01*
X136673928Y-93309088D01*
X136779870Y-93558390D01*
X136851998Y-93676575D01*
X136920979Y-93789605D01*
X136920986Y-93789615D01*
X137094253Y-93997819D01*
X137094259Y-93997824D01*
X137295998Y-94178582D01*
X137521910Y-94328044D01*
X137767176Y-94443020D01*
X137767183Y-94443022D01*
X137767185Y-94443023D01*
X138026557Y-94521057D01*
X138026564Y-94521058D01*
X138026569Y-94521060D01*
X138294561Y-94560500D01*
X138294566Y-94560500D01*
X138497636Y-94560500D01*
X138549133Y-94556730D01*
X138700156Y-94545677D01*
X138812758Y-94520593D01*
X138964546Y-94486782D01*
X138964548Y-94486781D01*
X138964553Y-94486780D01*
X139217558Y-94390014D01*
X139453777Y-94257441D01*
X139668177Y-94091888D01*
X139856186Y-93896881D01*
X140013799Y-93676579D01*
X140104841Y-93499501D01*
X140137649Y-93435690D01*
X140137651Y-93435684D01*
X140137656Y-93435675D01*
X140225118Y-93179305D01*
X140274319Y-92912933D01*
X140279259Y-92777763D01*
X164515787Y-92777763D01*
X164545413Y-93047013D01*
X164545415Y-93047024D01*
X164613926Y-93309082D01*
X164613928Y-93309088D01*
X164719870Y-93558390D01*
X164791998Y-93676575D01*
X164860979Y-93789605D01*
X164860986Y-93789615D01*
X165034253Y-93997819D01*
X165034259Y-93997824D01*
X165235998Y-94178582D01*
X165461910Y-94328044D01*
X165707176Y-94443020D01*
X165707183Y-94443022D01*
X165707185Y-94443023D01*
X165966557Y-94521057D01*
X165966564Y-94521058D01*
X165966569Y-94521060D01*
X166234561Y-94560500D01*
X166234566Y-94560500D01*
X166437636Y-94560500D01*
X166489133Y-94556730D01*
X166640156Y-94545677D01*
X166752758Y-94520593D01*
X166904546Y-94486782D01*
X166904548Y-94486781D01*
X166904553Y-94486780D01*
X167157558Y-94390014D01*
X167393777Y-94257441D01*
X167608177Y-94091888D01*
X167796186Y-93896881D01*
X167953799Y-93676579D01*
X168044841Y-93499501D01*
X168077649Y-93435690D01*
X168077651Y-93435684D01*
X168077656Y-93435675D01*
X168165118Y-93179305D01*
X168214319Y-92912933D01*
X168224212Y-92642235D01*
X168194586Y-92372982D01*
X168126072Y-92110912D01*
X168020130Y-91861610D01*
X167879018Y-91630390D01*
X167789747Y-91523119D01*
X167705746Y-91422180D01*
X167705740Y-91422175D01*
X167504002Y-91241418D01*
X167278092Y-91091957D01*
X167278090Y-91091956D01*
X167032824Y-90976980D01*
X167032819Y-90976978D01*
X167032814Y-90976976D01*
X166773442Y-90898942D01*
X166773428Y-90898939D01*
X166657791Y-90881921D01*
X166505439Y-90859500D01*
X166302369Y-90859500D01*
X166302364Y-90859500D01*
X166099844Y-90874323D01*
X166099831Y-90874325D01*
X165835453Y-90933217D01*
X165835446Y-90933220D01*
X165582439Y-91029987D01*
X165346226Y-91162557D01*
X165131822Y-91328112D01*
X164943822Y-91523109D01*
X164943816Y-91523116D01*
X164786202Y-91743419D01*
X164786199Y-91743424D01*
X164662350Y-91984309D01*
X164662343Y-91984327D01*
X164574884Y-92240685D01*
X164574881Y-92240699D01*
X164525681Y-92507068D01*
X164525680Y-92507075D01*
X164515787Y-92777763D01*
X140279259Y-92777763D01*
X140284212Y-92642235D01*
X140254586Y-92372982D01*
X140186072Y-92110912D01*
X140080130Y-91861610D01*
X139939018Y-91630390D01*
X139849747Y-91523119D01*
X139765746Y-91422180D01*
X139765740Y-91422175D01*
X139564002Y-91241418D01*
X139338092Y-91091957D01*
X139338090Y-91091956D01*
X139092824Y-90976980D01*
X139092819Y-90976978D01*
X139092814Y-90976976D01*
X138833442Y-90898942D01*
X138833428Y-90898939D01*
X138717791Y-90881921D01*
X138565439Y-90859500D01*
X138362369Y-90859500D01*
X138362364Y-90859500D01*
X138159844Y-90874323D01*
X138159831Y-90874325D01*
X137895453Y-90933217D01*
X137895446Y-90933220D01*
X137642439Y-91029987D01*
X137406226Y-91162557D01*
X137191822Y-91328112D01*
X137003822Y-91523109D01*
X137003816Y-91523116D01*
X136846202Y-91743419D01*
X136846199Y-91743424D01*
X136722350Y-91984309D01*
X136722343Y-91984327D01*
X136634884Y-92240685D01*
X136634881Y-92240699D01*
X136585681Y-92507068D01*
X136585680Y-92507075D01*
X136575787Y-92777763D01*
X133350500Y-92777763D01*
X133350500Y-87754500D01*
X133370185Y-87687461D01*
X133422989Y-87641706D01*
X133474500Y-87630500D01*
X171325500Y-87630500D01*
X171392539Y-87650185D01*
G37*
%TD.AperFunction*%
%TD*%
M02*
